<svg xmlns="http://www.w3.org/2000/svg" viewBox="0 0 80 80" width="80" height="80">
  <path fill="none" stroke="#2E3B4E" stroke-width="2" stroke-linecap="round" stroke-linejoin="round" stroke-miterlimit="10" d="M32.1,54.1L32.1,54.1l5.7,0l1.4-2.8L27.9,39.9L25,41.4V47l-2.8,0l-19,19c-2.7,2.7-2.7,7.2,0,9.9c2.7,2.7,7.2,2.7,9.9,0l19-19 L32.1,54.1z" />
  <polyline fill="none" stroke="#2E3B4E" stroke-width="2" stroke-linecap="round" stroke-linejoin="round" stroke-miterlimit="10" points="44.9,37 70,11.9 73.2,10.9 77.1,4.9 74.2,2.1 68.2,5.9 67.2,9.1 42.1,34.2" />
  <line fill="none" stroke="#2E3B4E" stroke-width="2" stroke-linecap="round" stroke-linejoin="round" stroke-miterlimit="10" x1="27.9" y1="49.8" x2="29.3" y2="51.3" />
  <line fill="none" stroke="#2E3B4E" stroke-width="2" stroke-linecap="round" stroke-linejoin="round" stroke-miterlimit="10" x1="21.2" y1="53.9" x2="7.2" y2="67.9" />
  <path fill="none" stroke="#2E3B4E" stroke-width="2" stroke-linecap="round" stroke-linejoin="round" stroke-miterlimit="10" d="M10.8,72.5" />
  <path fill="none" stroke="#2E3B4E" stroke-width="2" stroke-linecap="round" stroke-linejoin="round" stroke-miterlimit="10" d="M46,51.9l0,2.8l21.2,21.2c2.7,2.7,7.2,2.7,9.9,0c2.7-2.7,2.7-7.2,0-9.9L55.9,44.8h-2.8" />
  <path fill="none" stroke="#2E3B4E" stroke-width="2" stroke-linecap="round" stroke-linejoin="round" stroke-miterlimit="10" d="M34.1,26.5l19,18.3L46,51.9L27,33.6l-4.2-4.2c-2-2-5.1-2-7.1,0c-1.4,1.4-1.8,3.6-1.1,5.4l-5.2,5.2l-8.5-8.5l5.5-5.5 c1.8,0.7,3.9,0.3,5.4-1.1c1.4-1.4,1.8-3.6,1.1-5.4l9.9-9.9c6.7-6.7,14.2-6.9,21-6.6c1.4,0.1,2.5,1.4,2.4,2.8 c-0.1,1.4-1.4,2.5-2.8,2.4c-3.1-0.3-6.7,0.7-9.1,3.1c-1.5,1.5-3.2,4.1-3.6,6.1C29.9,20.9,31.4,23.8,34.1,26.5" />
  <line fill="none" stroke="#2E3B4E" stroke-width="2" stroke-linecap="round" stroke-linejoin="round" stroke-miterlimit="10" x1="35" y1="41.2" x2="32.1" y2="44.2" />
  <line fill="none" stroke="#2E3B4E" stroke-width="2" stroke-linecap="round" stroke-linejoin="round" stroke-miterlimit="10" x1="34.9" y1="47" x2="37.9" y2="44.1" />
  <line fill="none" stroke="#2E3B4E" stroke-width="2" stroke-linecap="round" stroke-linejoin="round" stroke-miterlimit="10" x1="25.1" y1="57.9" x2="11.1" y2="71.9" />
</svg>
