<!--?xml version="1.0" encoding="UTF-8" standalone="no"?-->
<!-- Created with Inkscape (http://www.inkscape.org/) -->

<svg xmlns:dc="http://purl.org/dc/elements/1.1/" xmlns:cc="http://creativecommons.org/ns#" xmlns:rdf="http://www.w3.org/1999/02/22-rdf-syntax-ns#" xmlns:svg="http://www.w3.org/2000/svg" xmlns="http://www.w3.org/2000/svg" xmlns:sodipodi="http://sodipodi.sourceforge.net/DTD/sodipodi-0.dtd" xmlns:inkscape="http://www.inkscape.org/namespaces/inkscape" width="121.57491mm" height="64.135078mm" viewBox="0 0 430.77725 227.25028" id="svg2" version="1.1" inkscape:version="0.91 r13725" sodipodi:docname="drawing-1.svg" class="" style="">
  <defs id="defs4"></defs>
  <sodipodi:namedview id="base" pagecolor="#ffffff" bordercolor="#666666" borderopacity="1.0" inkscape:pageopacity="0.0" inkscape:pageshadow="2" inkscape:zoom="0.62" inkscape:cx="339.85517" inkscape:cy="-536.46685" inkscape:document-units="px" inkscape:current-layer="layer1" showgrid="false" inkscape:window-width="1601" inkscape:window-height="1261" inkscape:window-x="0" inkscape:window-y="0" inkscape:window-maximized="0" fit-margin-top="0" fit-margin-left="0" fit-margin-right="0" fit-margin-bottom="0"></sodipodi:namedview>
  <metadata id="metadata7">
    <rdf:rdf>
      <cc:work rdf:about="">
        <dc:format>image/svg+xml</dc:format>
        <dc:type rdf:resource="http://purl.org/dc/dcmitype/StillImage"></dc:type>
        <dc:title></dc:title>
      </cc:work>
    </rdf:rdf>
  </metadata>
  <g inkscape:label="Layer 1" inkscape:groupmode="layer" id="layer1" transform="translate(-5.997437,-4.86914)">
    <g style="font-style:normal;font-weight:normal;font-size:250px;line-height:125%;font-family:sans-serif;letter-spacing:0px;word-spacing:0px;fill:none;fill-opacity:1;stroke:#000000;stroke-width:1px;stroke-linecap:butt;stroke-linejoin:miter;stroke-opacity:1" id="flowRoot4136" transform="translate(-30.645161,-400)">
      <path style="font-style:normal;font-variant:normal;font-weight:normal;font-stretch:normal;font-size:250px;font-family:Level;-inkscape-font-specification:Level;fill:none;fill-opacity:1;stroke:#000000;stroke-opacity:1" d="m 113.64258,558.86939 c -2.66667,0.66667 -5.66667,1 -9,1 -7.500001,0 -13.083335,-1 -16.750002,-3 -4.833333,-2.5 -7.75,-7.16667 -8.75,-14 l -27,0 0,2.25 24.25,0 c 0.666667,7 3.083333,11.75 7.25,14.25 3,1.83333 8.166667,2.75 15.5,2.75 6.500002,0 11.333332,-1.08333 14.500002,-3.25 l 0,0" id="path4253" inkscape:connector-curvature="0" sodipodi:nodetypes="csccccccscc" class="lzjCaQyf_0"></path>
      <path style="font-style:normal;font-variant:normal;font-weight:normal;font-stretch:normal;font-size:250px;font-family:Level;-inkscape-font-specification:Level;fill:none;fill-opacity:1;stroke:#000000;stroke-opacity:1" d="m 70.642578,534.61939 -5.5,-2.5 -2.5,0 0.25,2.5 7.75,0 0,0" id="path4251" inkscape:connector-curvature="0" sodipodi:nodetypes="cccccc" class="lzjCaQyf_1"></path>
      <path style="font-style:normal;font-variant:normal;font-weight:normal;font-stretch:normal;font-size:250px;font-family:Level;-inkscape-font-specification:Level;fill:none;fill-opacity:1;stroke:#000000;stroke-opacity:1" d="m 116.64258,553.86939 c -2.33333,0.5 -4.58333,0.75 -6.75,0.75 -15.000001,0 -23.416669,-5.33333 -25.250002,-16 -3.333333,-0.66667 -4.916667,-1 -4.75,-1 l -22.5,0 0.25,2.25 24,0 c 0.833333,7 3.25,11.75 7.25,14.25 3,1.83333 8.250001,2.75 15.750002,2.75 4.66667,0 8.58333,-0.66667 11.75,-2 l 0.25,-1 0,0" id="path4249" inkscape:connector-curvature="0" sodipodi:nodetypes="csccccccsccc" class="lzjCaQyf_2"></path>
      <path style="font-style:normal;font-variant:normal;font-weight:normal;font-stretch:normal;font-size:250px;font-family:Level;-inkscape-font-specification:Level;fill:none;fill-opacity:1;stroke:#000000;stroke-opacity:1" d="m 116.39258,551.11939 -1,-2 -2.75,0.25 c -10,0.16667 -16.833335,-2.75 -20.500002,-8.75 l -4.5,-1.25 c 1.833333,8.16667 9.250001,12.25 22.250002,12.25 2.16667,0 4.33333,-0.16667 6.5,-0.5 l 0,0" id="path4247" inkscape:connector-curvature="0" sodipodi:nodetypes="cccccscc" class="lzjCaQyf_3"></path>
      <path style="font-style:normal;font-variant:normal;font-weight:normal;font-stretch:normal;font-size:250px;font-family:Level;-inkscape-font-specification:Level;fill:none;fill-opacity:1;stroke:#000000;stroke-opacity:1" d="m 111.39258,546.11939 c -2.66667,-1 -7.5,-2.41667 -14.500002,-4.25 3.166672,2.5 8.000002,3.91667 14.500002,4.25 l 0,0" id="path4245" inkscape:connector-curvature="0" sodipodi:nodetypes="cccc" class="lzjCaQyf_4"></path>
      <path style="font-style:normal;font-variant:normal;font-weight:normal;font-stretch:normal;font-size:250px;font-family:Level;-inkscape-font-specification:Level;fill:none;fill-opacity:1;stroke:#000000;stroke-opacity:1" d="m 146.39258,548.36939 c 0,-12.16667 -6.08333,-21.08333 -18.25,-26.75 -3.33333,-1.5 -14.5,-4.66667 -33.500002,-9.5 -12.166667,-3 -18.25,-7.25 -18.25,-12.75 0,-7.66667 6.416667,-11.5 19.25,-11.5 12.500002,0 19.500002,5 21.000002,15 l 26.5,0 c -2.83333,-23 -18.83333,-34.5 -48.000002,-34.5 -12.166667,0 -22.416667,2.91667 -30.75,8.75 -9.5,6.66667 -14.25,15.91667 -14.25,27.75 0,11.66667 6,20.25 18,25.75 2.166667,1 13.333334,4 33.500002,9 12,3.16667 18,7.75 18,13.75 0,7.83333 -6.83333,11.75 -20.500002,11.75 -15.333333,0 -23.75,-5.66667 -25.25,-17 l -27,0 c 0.333333,13 5.75,22.66667 16.25,29 8.666667,5.16667 19.916667,7.75 33.75,7.75 14.000002,0 25.250002,-2.58333 33.750002,-7.75 10.5,-6.16667 15.75,-15.75 15.75,-28.75 l 0,0" id="path4243" inkscape:connector-curvature="0" sodipodi:nodetypes="cccssccscsccsscccsccc" class="lzjCaQyf_5"></path>
      <path style="font-style:normal;font-variant:normal;font-weight:normal;font-stretch:normal;font-size:250px;font-family:Level;-inkscape-font-specification:Level;fill:none;fill-opacity:1;stroke:#000000;stroke-opacity:1" d="m 151.64258,543.11939 c 0,-12 -6,-20.91667 -18,-26.75 -3.66667,-1.66667 -14.83333,-4.75 -33.5,-9.25 -12.166668,-3 -18.250002,-7.16667 -18.250002,-12.5 -1.666667,1.33333 -2.5,2.91667 -2.5,4.75 0,4.16667 6,7.66667 18,10.5 17.166672,3.83333 28.416672,7.16667 33.750002,10 12,6.33333 18,15.83333 18,28.5 0,3.83333 -0.5,7.5 -1.5,11 2.66667,-5 4,-10.41667 4,-16.25 l 0,0" id="path4241" inkscape:connector-curvature="0" sodipodi:nodetypes="ccccsccsccc" class="lzjCaQyf_6"></path>
      <path style="font-style:normal;font-variant:normal;font-weight:normal;font-stretch:normal;font-size:250px;font-family:Level;-inkscape-font-specification:Level;fill:none;fill-opacity:1;stroke:#000000;stroke-opacity:1" d="m 156.89258,537.86939 c 0,-10.5 -4.66667,-18.66667 -14,-24.5 -8,-5 -17.66667,-7.5 -29,-7.5 l -0.25,-2.25 c -8.66667,-2 -13.58333,-3.16667 -14.750002,-3.5 -6.666667,-2.16667 -10.416667,-5 -11.25,-8.5 l -2.75,0.75 -0.25,1.75 c 0,4.16667 6.083334,7.66667 18.250002,10.5 17,3.83333 28.16667,7.16667 33.5,10 12.16667,6.33333 18.25,15.83333 18.25,28.5 0,3.66667 -0.5,7.25 -1.5,10.75 2.5,-4.83333 3.75,-10.16667 3.75,-16 l 0,0" id="path4239" inkscape:connector-curvature="0" sodipodi:nodetypes="csccccccccsccc" class="lzjCaQyf_7"></path>
      <path style="font-style:normal;font-variant:normal;font-weight:normal;font-stretch:normal;font-size:250px;font-family:Level;-inkscape-font-specification:Level;fill:none;fill-opacity:1;stroke:#000000;stroke-opacity:1" d="m 113.14258,500.36939 c -0.5,-1.5 -1.16667,-2.83333 -2,-4 -5,-1.16667 -7.75,-1.83333 -8.25,-2 -3.000001,-1 -5.500002,-2.16667 -7.500002,-3.5 -1.666667,0 -3.333333,0.0833 -5,0.25 0.833333,2.83333 8.416667,5.91667 22.750002,9.25 l 0,0" id="path4237" inkscape:connector-curvature="0" sodipodi:nodetypes="ccscccc" class="lzjCaQyf_8"></path>
      <path style="font-style:normal;font-variant:normal;font-weight:normal;font-stretch:normal;font-size:250px;font-family:Level;-inkscape-font-specification:Level;fill:none;fill-opacity:1;stroke:#000000;stroke-opacity:1" d="m 162.14258,532.61939 c 0,-12 -6.08333,-20.91667 -18.25,-26.75 l -10.25,0 c 17.5,6.33333 26.25,17 26.25,32 0,3.66667 -0.5,7.25 -1.5,10.75 2.5,-4.83333 3.75,-10.16667 3.75,-16 l 0,0" id="path4235" inkscape:connector-curvature="0" sodipodi:nodetypes="cccsccc" class="lzjCaQyf_9"></path>
      <path style="font-style:normal;font-variant:normal;font-weight:normal;font-stretch:normal;font-size:250px;font-family:Level;-inkscape-font-specification:Level;fill:none;fill-opacity:1;stroke:#000000;stroke-opacity:1" d="m 148.39258,497.61939 c -2.83333,-23 -18.83333,-34.5 -48,-34.5 -9.500001,0 -17.666669,1.66667 -24.500002,5 5.666667,-1.83333 12.083333,-2.75 19.25,-2.75 28.833332,0 45.500002,10.75 50.000002,32.25 l 3.25,0 0,0" id="path4233" inkscape:connector-curvature="0" sodipodi:nodetypes="cscsccc" class="lzjCaQyf_10"></path>
      <path style="font-style:normal;font-variant:normal;font-weight:normal;font-stretch:normal;font-size:250px;font-family:Level;-inkscape-font-specification:Level;fill:none;fill-opacity:1;stroke:#000000;stroke-opacity:1" d="m 167.39258,527.36939 c 0,-12 -6.08333,-20.91667 -18.25,-26.75 l -3.5,0 0.5,3 c 12.66667,6.5 19,16.16667 19,29 0,3.66667 -0.5,7.25 -1.5,10.75 2.5,-4.83333 3.75,-10.16667 3.75,-16 l 0,0" id="path4231" inkscape:connector-curvature="0" sodipodi:nodetypes="ccccsccc" class="lzjCaQyf_11"></path>
      <path style="font-style:normal;font-variant:normal;font-weight:normal;font-stretch:normal;font-size:250px;font-family:Level;-inkscape-font-specification:Level;fill:none;fill-opacity:1;stroke:#000000;stroke-opacity:1" d="m 153.64258,492.36939 c -2.83333,-23 -18.75,-34.5 -47.75,-34.5 -9.666668,0 -17.916669,1.66667 -24.750002,5 5.833333,-1.83333 12.250001,-2.75 19.250002,-2.75 29,0 45.66667,10.75 50,32.25 l 3.25,0 0,0" id="path4229" inkscape:connector-curvature="0" sodipodi:nodetypes="cscsccc" class="lzjCaQyf_12"></path>
      <path style="font-style:normal;font-variant:normal;font-weight:normal;font-stretch:normal;font-size:250px;font-family:Level;-inkscape-font-specification:Level;fill:none;fill-opacity:1;stroke:#000000;stroke-opacity:1" d="m 158.89258,487.11939 c -2.83333,-23 -18.75,-34.5 -47.75,-34.5 -9.66667,0 -17.916669,1.66667 -24.750002,5 5.833333,-1.83333 12.333334,-2.75 19.500002,-2.75 28.83333,0 45.41667,10.75 49.75,32.25 l 3.25,0 0,0" id="path4227" inkscape:connector-curvature="0" sodipodi:nodetypes="cscsccc" class="lzjCaQyf_13"></path>
      <path style="font-style:normal;font-variant:normal;font-weight:normal;font-stretch:normal;font-size:250px;font-family:Level;-inkscape-font-specification:Level;fill:none;fill-opacity:1;stroke:#000000;stroke-opacity:1" d="m 164.14258,481.86939 c -2.83333,-23 -18.75,-34.5 -47.75,-34.5 -9.66667,0 -17.916667,1.66667 -24.750002,5 5.833335,-1.83333 12.333332,-2.75 19.500002,-2.75 28.83333,0 45.41667,10.75 49.75,32.25 l 3.25,0 0,0" id="path4225" inkscape:connector-curvature="0" sodipodi:nodetypes="cscsccc" class="lzjCaQyf_14"></path>
      <path style="font-style:normal;font-variant:normal;font-weight:normal;font-stretch:normal;font-size:250px;font-family:Level;-inkscape-font-specification:Level;fill:none;fill-opacity:1;stroke:#000000;stroke-opacity:1" d="m 252.51758,553.61939 c -2.33333,0.5 -4.66667,0.75 -7,0.75 -17.5,0 -26.25,-11.83333 -26.25,-35.5 0,-5.83333 0.83333,-11.25 2.5,-16.25 -3.16667,6 -4.75,13.16667 -4.75,21.5 0,21.83333 7.75,32.75 23.25,32.75 4.83333,0 8.91667,-1.08333 12.25,-3.25 l 0,0" id="path4221" inkscape:connector-curvature="0" sodipodi:nodetypes="csscsscc" class="lzjCaQyf_15"></path>
      <path style="font-style:normal;font-variant:normal;font-weight:normal;font-stretch:normal;font-size:250px;font-family:Level;-inkscape-font-specification:Level;fill:none;fill-opacity:1;stroke:#000000;stroke-opacity:1" d="m 257.51758,548.36939 c -2.16667,0.5 -4.41667,0.75 -6.75,0.75 -17.33333,0 -26,-11.83333 -26,-35.5 0,-5.83333 0.66667,-11.16667 2,-16 -3,5.83333 -4.5,12.91667 -4.5,21.25 0,21.83333 7.75,32.75 23.25,32.75 4.66667,0 8.66667,-1.08333 12,-3.25 l 0,0" id="path4219" inkscape:connector-curvature="0" sodipodi:nodetypes="csscsscc" class="lzjCaQyf_16"></path>
      <path style="font-style:normal;font-variant:normal;font-weight:normal;font-stretch:normal;font-size:250px;font-family:Level;-inkscape-font-specification:Level;fill:none;fill-opacity:1;stroke:#000000;stroke-opacity:1" d="m 260.76758,543.61939 c -1.66667,0.16667 -3.25,0.25 -4.75,0.25 -17.33333,0 -26,-11.91667 -26,-35.75 0,-5.33333 0.66667,-10.33333 2,-15 l -0.25,0 c -2.83333,5.83333 -4.25,12.66667 -4.25,20.5 0,21.83333 7.75,32.75 23.25,32.75 3.5,0 6.66667,-0.66667 9.5,-2 l 0.5,-0.75 0,0" id="path4217" inkscape:connector-curvature="0" sodipodi:nodetypes="cssccssccc" class="lzjCaQyf_17"></path>
      <path style="font-style:normal;font-variant:normal;font-weight:normal;font-stretch:normal;font-size:250px;font-family:Level;-inkscape-font-specification:Level;fill:none;fill-opacity:1;stroke:#000000;stroke-opacity:1" d="m 262.51758,538.61939 -1,0 c -9.33333,0.5 -16.25,-3.16667 -20.75,-11 -3.66667,-6.33333 -5.5,-14.58333 -5.5,-24.75 0,-3.66667 0.33333,-7.33333 1,-11 l -0.75,0.25 c -1.83333,5 -2.75,10.33333 -2.75,16 0,21.83333 7.75,32.75 23.25,32.75 2,0 4,-0.16667 6,-0.5 l 0.5,-1.75 0,0" id="path4215" inkscape:connector-curvature="0" sodipodi:nodetypes="cccsccssccc" class="lzjCaQyf_18"></path>
      <path style="font-style:normal;font-variant:normal;font-weight:normal;font-stretch:normal;font-size:250px;font-family:Level;-inkscape-font-specification:Level;fill:none;fill-opacity:1;stroke:#000000;stroke-opacity:1" d="m 264.26758,525.11939 c 0,-9.16667 -1.66667,-16.75 -5,-22.75 -4.16667,-7.5 -10.41667,-11.08333 -18.75,-10.75 l -1.25,0 c -0.83333,3.66667 -1.25,7.41667 -1.25,11.25 0,15.5 4.08333,25.58333 12.25,30.25 l 13.5,0 c 0.33333,-2.66667 0.5,-5.33333 0.5,-8 l 0,0" id="path4213" inkscape:connector-curvature="0" sodipodi:nodetypes="csccscccc" class="lzjCaQyf_19"></path>
      <path style="font-style:normal;font-variant:normal;font-weight:normal;font-stretch:normal;font-size:250px;font-family:Level;-inkscape-font-specification:Level;fill:none;fill-opacity:1;stroke:#000000;stroke-opacity:1" d="m 267.26758,525.11939 c 0,9.66667 -2,17.58333 -6,23.75 -4.83333,7.33333 -11.83333,11 -21,11 -17.5,0 -26.25,-11.91667 -26.25,-35.75 0,-9.83333 1.91667,-17.91667 5.75,-24.25 4.66667,-7.5 11.58333,-11.25 20.75,-11.25 9.33333,0 16.33333,4 21,12 3.83333,6.33333 5.75,14.5 5.75,24.5 l 0,0" id="path4211" inkscape:connector-curvature="0" sodipodi:nodetypes="ccsscsccc" class="lzjCaQyf_20"></path>
      <path style="font-style:normal;font-variant:normal;font-weight:normal;font-stretch:normal;font-size:250px;font-family:Level;-inkscape-font-specification:Level;fill:none;fill-opacity:1;stroke:#000000;stroke-opacity:1" d="m 293.26758,578.11939 0,-148.75 -26.75,0 0,57.25 c -8.5,-13.83333 -19.33333,-20.75 -32.5,-20.75 -16,0 -28.16667,6.33333 -36.5,19 -7.16667,10.83333 -10.75,24.58333 -10.75,41.25 0,14.66667 3.75,27.25 11.25,37.75 8.5,11.83333 19.75,17.75 33.75,17.75 8.83333,0 16,-1.91667 21.5,-5.75 4.5,-3.16667 9.25,-8.83333 14.25,-17 l 0,19.25 25.75,0 0,0" id="path4209" inkscape:connector-curvature="0" sodipodi:nodetypes="ccccscscsccccc" class="lzjCaQyf_21"></path>
      <path style="font-style:normal;font-variant:normal;font-weight:normal;font-stretch:normal;font-size:250px;font-family:Level;-inkscape-font-specification:Level;fill:none;fill-opacity:1;stroke:#000000;stroke-opacity:1" d="m 263.51758,476.86939 0,-6.75 c -6.5,-6.33333 -14.58333,-9.5 -24.25,-9.5 -7.5,0 -14.25,1.5 -20.25,4.5 4.66667,-1.33333 9.66667,-2 15,-2 12.33333,0 22.16667,4.58333 29.5,13.75 l 0,0" id="path4207" inkscape:connector-curvature="0" sodipodi:nodetypes="ccscscc" class="lzjCaQyf_22"></path>
      <path style="font-style:normal;font-variant:normal;font-weight:normal;font-stretch:normal;font-size:250px;font-family:Level;-inkscape-font-specification:Level;fill:none;fill-opacity:1;stroke:#000000;stroke-opacity:1" d="m 263.51758,466.36939 0,-5.5 c -5.16667,-3.66667 -11.5,-5.5 -19,-5.5 -7.5,0 -14.25,1.5 -20.25,4.5 4.66667,-1.33333 9.66667,-2 15,-2 9.33333,0 17.41667,2.83333 24.25,8.5 l 0,0" id="path4205" inkscape:connector-curvature="0" sodipodi:nodetypes="ccscscc" class="lzjCaQyf_23"></path>
      <path style="font-style:normal;font-variant:normal;font-weight:normal;font-stretch:normal;font-size:250px;font-family:Level;-inkscape-font-specification:Level;fill:none;fill-opacity:1;stroke:#000000;stroke-opacity:1" d="m 298.51758,572.86939 0,-148.75 -26.75,0 0,2.25 24.5,0 0,146.5 2.25,0 0,0" id="path4203" inkscape:connector-curvature="0" sodipodi:nodetypes="cccccccc" class="lzjCaQyf_24"></path>
      <path style="font-style:normal;font-variant:normal;font-weight:normal;font-stretch:normal;font-size:250px;font-family:Level;-inkscape-font-specification:Level;fill:none;fill-opacity:1;stroke:#000000;stroke-opacity:1" d="m 263.51758,457.36939 0,-4.5 c -4.33333,-1.83333 -8.91667,-2.75 -13.75,-2.75 -7.5,0 -14.25,1.5 -20.25,4.5 4.66667,-1.33333 9.66667,-2 15,-2 8.33333,0 14.66667,1.58333 19,4.75 l 0,0" id="path4201" inkscape:connector-curvature="0" sodipodi:nodetypes="ccscscc" class="lzjCaQyf_25"></path>
      <path style="font-style:normal;font-variant:normal;font-weight:normal;font-stretch:normal;font-size:250px;font-family:Level;-inkscape-font-specification:Level;fill:none;fill-opacity:1;stroke:#000000;stroke-opacity:1" d="m 303.76758,567.36939 0,-148.5 -26.75,0 0,2.25 24.5,0 0,146.25 2.25,0 0,0" id="path4199" inkscape:connector-curvature="0" sodipodi:nodetypes="cccccccc" class="lzjCaQyf_26"></path>
      <path style="font-style:normal;font-variant:normal;font-weight:normal;font-stretch:normal;font-size:250px;font-family:Level;-inkscape-font-specification:Level;fill:none;fill-opacity:1;stroke:#000000;stroke-opacity:1" d="m 263.51758,449.61939 0,-3.75 c -2.83333,-0.66667 -5.66667,-1 -8.5,-1 -7.5,0 -14.25,1.5 -20.25,4.5 4.66667,-1.5 9.66667,-2.25 15,-2.25 4.83333,0 9.41667,0.83333 13.75,2.5 l 0,0" id="path4197" inkscape:connector-curvature="0" sodipodi:nodetypes="ccscscc" class="lzjCaQyf_27"></path>
      <path style="font-style:normal;font-variant:normal;font-weight:normal;font-stretch:normal;font-size:250px;font-family:Level;-inkscape-font-specification:Level;fill:none;fill-opacity:1;stroke:#000000;stroke-opacity:1" d="m 309.01758,562.11939 0,-148.75 -26.75,0 0,2.5 24.5,0 0,146.25 2.25,0 0,0" id="path4195" inkscape:connector-curvature="0" sodipodi:nodetypes="cccccccc" class="lzjCaQyf_28"></path>
      <path style="font-style:normal;font-variant:normal;font-weight:normal;font-stretch:normal;font-size:250px;font-family:Level;-inkscape-font-specification:Level;fill:none;fill-opacity:1;stroke:#000000;stroke-opacity:1" d="m 314.26758,556.86939 0,-148.75 -26.75,0 0,2.5 24.5,0 0,146.25 2.25,0 0,0" id="path4193" inkscape:connector-curvature="0" sodipodi:nodetypes="cccccccc" class="lzjCaQyf_29"></path>
      <path style="font-style:normal;font-variant:normal;font-weight:normal;font-stretch:normal;font-size:250px;font-family:Level;-inkscape-font-specification:Level;fill:none;fill-opacity:1;stroke:#000000;stroke-opacity:1" d="m 284.51758,405.36914 0,5.25 -5.25,0 0,5.25 -5.25,0 0,5.25 -5.25,0 0,5.25 -5.25,0 0,16.5 c -2.83333,-0.66667 -5.66667,-1 -8.5,-1 -9,0 -16.66667,1.91667 -23,5.75 -3.83333,2.33333 -9.75,7.5 -17.75,15.5 l -17,17 c -9,11.16667 -13.5,26.5 -13.5,46 0,2.47288 0.021,7.19686 0.0215,7.30078 l -13.89648,-0.42383 c 0,0 0.5,-3.79362 0.5,-5.62695 0,-12.83333 -6.33333,-22.5 -19,-29 l -0.5,-3 6,0 -0.75,-5.5 6,0 -0.75,-5.25 6,0 c -2.33333,-26.83333 -19.33333,-40.25 -51,-40.25 -14.83333,0 -26.666669,3.83333 -35.500002,11.5 -22.5,19.83333 -33.75,36.16667 -33.75,49 0,11 4.166667,19.16667 12.5,24.5 l 0,3.75 -22.5,0 0,98.5 140.628902,-0.0762 -0.004,0.0762 149.90234,0 1.84766,0 137.40234,0 0,-98.5 -20,0 -25.75,-43.25 45,-44.75 -39.5,0 -39.5,39.25 0,-78.75 -31.75,0 0,5.25 -5.5,0 0,5.25 -5.25,0 0,5.25 -5.25,0 0,5.25 -5.25,0 0,106.5 -4.65234,0 -1.84766,0 -10.40234,0 0,-127.75 -32.75,0 z" id="path4191" inkscape:connector-curvature="0" class="lzjCaQyf_30"></path>
      <path style="font-style:normal;font-variant:normal;font-weight:normal;font-stretch:normal;font-size:250px;font-family:Level;-inkscape-font-specification:Level;fill:none;fill-opacity:1;stroke:#000000;stroke-opacity:1" d="m 368.41992,572.86939 0,-30.5 -2.5,2.5 0,28 2.5,0 0,0" id="path4189" inkscape:connector-curvature="0" sodipodi:nodetypes="cccccc" class="lzjCaQyf_31"></path>
      <path style="font-style:normal;font-variant:normal;font-weight:normal;font-stretch:normal;font-size:250px;font-family:Level;-inkscape-font-specification:Level;fill:none;fill-opacity:1;stroke:#000000;stroke-opacity:1" d="m 373.66992,567.36939 0,-30.25 -2.5,2.25 0,28 2.5,0 0,0" id="path4187" inkscape:connector-curvature="0" sodipodi:nodetypes="cccccc" class="lzjCaQyf_32"></path>
      <path style="font-style:normal;font-variant:normal;font-weight:normal;font-stretch:normal;font-size:250px;font-family:Level;-inkscape-font-specification:Level;fill:none;fill-opacity:1;stroke:#000000;stroke-opacity:1" d="m 378.91992,562.11939 0,-23.75 -2.5,-4.25 0,28 2.5,0 0,0" id="path4185" inkscape:connector-curvature="0" sodipodi:nodetypes="cccccc" class="lzjCaQyf_33"></path>
      <path style="font-style:normal;font-variant:normal;font-weight:normal;font-stretch:normal;font-size:250px;font-family:Level;-inkscape-font-specification:Level;fill:none;fill-opacity:1;stroke:#000000;stroke-opacity:1" d="m 384.16992,556.86939 0,-9 -2.25,-4.25 0,13.25 2.25,0 0,0" id="path4183" inkscape:connector-curvature="0" sodipodi:nodetypes="cccccc" class="lzjCaQyf_34"></path>
      <path style="font-style:normal;font-variant:normal;font-weight:normal;font-stretch:normal;font-size:250px;font-family:Level;-inkscape-font-specification:Level;fill:none;fill-opacity:1;stroke:#000000;stroke-opacity:1" d="m 441.66992,572.86939 -38.5,-65 -3,3 36.5,62 5,0 0,0" id="path4181" inkscape:connector-curvature="0" sodipodi:nodetypes="cccccc" class="lzjCaQyf_35"></path>
      <path style="font-style:normal;font-variant:normal;font-weight:normal;font-stretch:normal;font-size:250px;font-family:Level;-inkscape-font-specification:Level;fill:none;fill-opacity:1;stroke:#000000;stroke-opacity:1" d="m 438.16992,469.11939 -32.25,0 -42.75,44.5 0,-84 -26,0 0,148.5 26,0 0,-34.5 13.75,-14.5 27.5,49 32,0 -40,-67.75 41.75,-41.25 0,0" id="path4179" inkscape:connector-curvature="0" sodipodi:nodetypes="cccccccccccccc" class="lzjCaQyf_36"></path>
      <path style="font-style:normal;font-variant:normal;font-weight:normal;font-stretch:normal;font-size:250px;font-family:Level;-inkscape-font-specification:Level;fill:none;fill-opacity:1;stroke:#000000;stroke-opacity:1" d="m 368.41992,503.86939 0,-79.5 -26,0 0,2.25 23.5,0 0,79.75 2.5,-2.5 0,0" id="path4177" inkscape:connector-curvature="0" sodipodi:nodetypes="cccccccc" class="lzjCaQyf_37"></path>
      <path style="font-style:normal;font-variant:normal;font-weight:normal;font-stretch:normal;font-size:250px;font-family:Level;-inkscape-font-specification:Level;fill:none;fill-opacity:1;stroke:#000000;stroke-opacity:1" d="m 446.91992,567.36939 -38.5,-64.75 -3,3 36.5,61.75 5,0 0,0" id="path4175" inkscape:connector-curvature="0" sodipodi:nodetypes="cccccc" class="lzjCaQyf_38"></path>
      <path style="font-style:normal;font-variant:normal;font-weight:normal;font-stretch:normal;font-size:250px;font-family:Level;-inkscape-font-specification:Level;fill:none;fill-opacity:1;stroke:#000000;stroke-opacity:1" d="m 373.66992,498.36939 0,-79.25 -26,0 0,2.25 23.5,0 0,79.5 2.5,-2.5 0,0" id="path4173" inkscape:connector-curvature="0" sodipodi:nodetypes="cccccccc" class="lzjCaQyf_39"></path>
      <path style="font-style:normal;font-variant:normal;font-weight:normal;font-stretch:normal;font-size:250px;font-family:Level;-inkscape-font-specification:Level;fill:none;fill-opacity:1;stroke:#000000;stroke-opacity:1" d="m 452.16992,562.11939 -38.25,-64.75 -3.25,3 36.5,61.75 5,0 0,0" id="path4171" inkscape:connector-curvature="0" sodipodi:nodetypes="cccccc" class="lzjCaQyf_40"></path>
      <path style="font-style:normal;font-variant:normal;font-weight:normal;font-stretch:normal;font-size:250px;font-family:Level;-inkscape-font-specification:Level;fill:none;fill-opacity:1;stroke:#000000;stroke-opacity:1" d="m 378.91992,492.86939 0,-79 -26,0 0,2.25 23.5,0 0,79.25 2.5,-2.5 0,0" id="path4169" inkscape:connector-curvature="0" sodipodi:nodetypes="cccccccc" class="lzjCaQyf_41"></path>
      <path style="font-style:normal;font-variant:normal;font-weight:normal;font-stretch:normal;font-size:250px;font-family:Level;-inkscape-font-specification:Level;fill:none;fill-opacity:1;stroke:#000000;stroke-opacity:1" d="m 457.66992,556.86939 -38.5,-64.75 -3.25,3 36.75,61.75 5,0 0,0" id="path4167" inkscape:connector-curvature="0" sodipodi:nodetypes="cccccc" class="lzjCaQyf_42"></path>
      <path style="font-style:normal;font-variant:normal;font-weight:normal;font-stretch:normal;font-size:250px;font-family:Level;-inkscape-font-specification:Level;fill:none;fill-opacity:1;stroke:#000000;stroke-opacity:1" d="m 384.16992,487.61939 0,-79 -26,0 0,2.25 23.75,0 0,79 2.25,-2.25 0,0" id="path4165" inkscape:connector-curvature="0" sodipodi:nodetypes="cccccccc" class="lzjCaQyf_43"></path>
      <path style="font-style:normal;font-variant:normal;font-weight:normal;font-stretch:normal;font-size:250px;font-family:Level;-inkscape-font-specification:Level;fill:none;fill-opacity:1;stroke:#000000;stroke-opacity:1" d="m 443.41992,463.86939 -32.25,0 -2.25,2.25 32,0 2.5,-2.25 0,0" id="path4163" inkscape:connector-curvature="0" sodipodi:nodetypes="cccccc" class="lzjCaQyf_44"></path>
      <path style="font-style:normal;font-variant:normal;font-weight:normal;font-stretch:normal;font-size:250px;font-family:Level;-inkscape-font-specification:Level;fill:none;fill-opacity:1;stroke:#000000;stroke-opacity:1" d="m 448.66992,458.61939 -32.25,0 -2.25,2.25 32.25,0 2.25,-2.25 0,0" id="path4161" inkscape:connector-curvature="0" sodipodi:nodetypes="cccccc" class="lzjCaQyf_45"></path>
      <path style="font-style:normal;font-variant:normal;font-weight:normal;font-stretch:normal;font-size:250px;font-family:Level;-inkscape-font-specification:Level;fill:none;fill-opacity:1;stroke:#000000;stroke-opacity:1" d="m 453.66992,453.36939 -32,0 -2.25,2.25 32.25,0 2,-2.25 0,0" id="path4159" inkscape:connector-curvature="0" sodipodi:nodetypes="cccccc" class="lzjCaQyf_46"></path>
      <path style="font-style:normal;font-variant:normal;font-weight:normal;font-stretch:normal;font-size:250px;font-family:Level;-inkscape-font-specification:Level;fill:none;fill-opacity:1;stroke:#000000;stroke-opacity:1" d="m 459.16992,448.11939 -32,0 -2.5,2.25 32,0 2.5,-2.25 0,0" id="path4157" inkscape:connector-curvature="0" sodipodi:nodetypes="cccccc" class="lzjCaQyf_47"></path>
    </g>
  </g>
<style data-made-with="vivus-instant">.lzjCaQyf_0{stroke-dasharray:145 147;stroke-dashoffset:146;}.start .lzjCaQyf_0{animation:lzjCaQyf_draw 3333ms linear 0ms forwards;}.lzjCaQyf_1{stroke-dasharray:19 21;stroke-dashoffset:20;}.start .lzjCaQyf_1{animation:lzjCaQyf_draw 3333ms linear 35ms forwards;}.lzjCaQyf_2{stroke-dasharray:140 142;stroke-dashoffset:141;}.start .lzjCaQyf_2{animation:lzjCaQyf_draw 3333ms linear 70ms forwards;}.lzjCaQyf_3{stroke-dasharray:68 70;stroke-dashoffset:69;}.start .lzjCaQyf_3{animation:lzjCaQyf_draw 3333ms linear 106ms forwards;}.lzjCaQyf_4{stroke-dasharray:31 33;stroke-dashoffset:32;}.start .lzjCaQyf_4{animation:lzjCaQyf_draw 3333ms linear 141ms forwards;}.lzjCaQyf_5{stroke-dasharray:624 626;stroke-dashoffset:625;}.start .lzjCaQyf_5{animation:lzjCaQyf_draw 3333ms linear 177ms forwards;}.lzjCaQyf_6{stroke-dasharray:220 222;stroke-dashoffset:221;}.start .lzjCaQyf_6{animation:lzjCaQyf_draw 3333ms linear 212ms forwards;}.lzjCaQyf_7{stroke-dasharray:218 220;stroke-dashoffset:219;}.start .lzjCaQyf_7{animation:lzjCaQyf_draw 3333ms linear 248ms forwards;}.lzjCaQyf_8{stroke-dasharray:52 54;stroke-dashoffset:53;}.start .lzjCaQyf_8{animation:lzjCaQyf_draw 3333ms linear 283ms forwards;}.lzjCaQyf_9{stroke-dasharray:117 119;stroke-dashoffset:118;}.start .lzjCaQyf_9{animation:lzjCaQyf_draw 3333ms linear 319ms forwards;}.lzjCaQyf_10{stroke-dasharray:180 182;stroke-dashoffset:181;}.start .lzjCaQyf_10{animation:lzjCaQyf_draw 3333ms linear 354ms forwards;}.lzjCaQyf_11{stroke-dasharray:106 108;stroke-dashoffset:107;}.start .lzjCaQyf_11{animation:lzjCaQyf_draw 3333ms linear 390ms forwards;}.lzjCaQyf_12{stroke-dasharray:180 182;stroke-dashoffset:181;}.start .lzjCaQyf_12{animation:lzjCaQyf_draw 3333ms linear 425ms forwards;}.lzjCaQyf_13{stroke-dasharray:180 182;stroke-dashoffset:181;}.start .lzjCaQyf_13{animation:lzjCaQyf_draw 3333ms linear 460ms forwards;}.lzjCaQyf_14{stroke-dasharray:180 182;stroke-dashoffset:181;}.start .lzjCaQyf_14{animation:lzjCaQyf_draw 3333ms linear 496ms forwards;}.lzjCaQyf_15{stroke-dasharray:155 157;stroke-dashoffset:156;}.start .lzjCaQyf_15{animation:lzjCaQyf_draw 3333ms linear 531ms forwards;}.lzjCaQyf_16{stroke-dasharray:154 156;stroke-dashoffset:155;}.start .lzjCaQyf_16{animation:lzjCaQyf_draw 3333ms linear 567ms forwards;}.lzjCaQyf_17{stroke-dasharray:149 151;stroke-dashoffset:150;}.start .lzjCaQyf_17{animation:lzjCaQyf_draw 3333ms linear 602ms forwards;}.lzjCaQyf_18{stroke-dasharray:134 136;stroke-dashoffset:135;}.start .lzjCaQyf_18{animation:lzjCaQyf_draw 3333ms linear 638ms forwards;}.lzjCaQyf_19{stroke-dasharray:115 117;stroke-dashoffset:116;}.start .lzjCaQyf_19{animation:lzjCaQyf_draw 3333ms linear 673ms forwards;}.lzjCaQyf_20{stroke-dasharray:202 204;stroke-dashoffset:203;}.start .lzjCaQyf_20{animation:lzjCaQyf_draw 3333ms linear 709ms forwards;}.lzjCaQyf_21{stroke-dasharray:530 532;stroke-dashoffset:531;}.start .lzjCaQyf_21{animation:lzjCaQyf_draw 3333ms linear 744ms forwards;}.lzjCaQyf_22{stroke-dasharray:104 106;stroke-dashoffset:105;}.start .lzjCaQyf_22{animation:lzjCaQyf_draw 3333ms linear 780ms forwards;}.lzjCaQyf_23{stroke-dasharray:88 90;stroke-dashoffset:89;}.start .lzjCaQyf_23{animation:lzjCaQyf_draw 3333ms linear 815ms forwards;}.lzjCaQyf_24{stroke-dasharray:351 353;stroke-dashoffset:352;}.start .lzjCaQyf_24{animation:lzjCaQyf_draw 3333ms linear 851ms forwards;}.lzjCaQyf_25{stroke-dasharray:75 77;stroke-dashoffset:76;}.start .lzjCaQyf_25{animation:lzjCaQyf_draw 3333ms linear 886ms forwards;}.lzjCaQyf_26{stroke-dasharray:351 353;stroke-dashoffset:352;}.start .lzjCaQyf_26{animation:lzjCaQyf_draw 3333ms linear 921ms forwards;}.lzjCaQyf_27{stroke-dasharray:63 65;stroke-dashoffset:64;}.start .lzjCaQyf_27{animation:lzjCaQyf_draw 3333ms linear 957ms forwards;}.lzjCaQyf_28{stroke-dasharray:351 353;stroke-dashoffset:352;}.start .lzjCaQyf_28{animation:lzjCaQyf_draw 3333ms linear 992ms forwards;}.lzjCaQyf_29{stroke-dasharray:351 353;stroke-dashoffset:352;}.start .lzjCaQyf_29{animation:lzjCaQyf_draw 3333ms linear 1028ms forwards;}.lzjCaQyf_30{stroke-dasharray:1803 1805;stroke-dashoffset:1804;}.start .lzjCaQyf_30{animation:lzjCaQyf_draw 3333ms linear 1063ms forwards;}.lzjCaQyf_31{stroke-dasharray:65 67;stroke-dashoffset:66;}.start .lzjCaQyf_31{animation:lzjCaQyf_draw 3333ms linear 1099ms forwards;}.lzjCaQyf_32{stroke-dasharray:65 67;stroke-dashoffset:66;}.start .lzjCaQyf_32{animation:lzjCaQyf_draw 3333ms linear 1134ms forwards;}.lzjCaQyf_33{stroke-dasharray:60 62;stroke-dashoffset:61;}.start .lzjCaQyf_33{animation:lzjCaQyf_draw 3333ms linear 1170ms forwards;}.lzjCaQyf_34{stroke-dasharray:30 32;stroke-dashoffset:31;}.start .lzjCaQyf_34{animation:lzjCaQyf_draw 3333ms linear 1205ms forwards;}.lzjCaQyf_35{stroke-dasharray:157 159;stroke-dashoffset:158;}.start .lzjCaQyf_35{animation:lzjCaQyf_draw 3333ms linear 1241ms forwards;}.lzjCaQyf_36{stroke-dasharray:659 661;stroke-dashoffset:660;}.start .lzjCaQyf_36{animation:lzjCaQyf_draw 3333ms linear 1276ms forwards;}.lzjCaQyf_37{stroke-dasharray:215 217;stroke-dashoffset:216;}.start .lzjCaQyf_37{animation:lzjCaQyf_draw 3333ms linear 1312ms forwards;}.lzjCaQyf_38{stroke-dasharray:157 159;stroke-dashoffset:158;}.start .lzjCaQyf_38{animation:lzjCaQyf_draw 3333ms linear 1347ms forwards;}.lzjCaQyf_39{stroke-dasharray:215 217;stroke-dashoffset:216;}.start .lzjCaQyf_39{animation:lzjCaQyf_draw 3333ms linear 1382ms forwards;}.lzjCaQyf_40{stroke-dasharray:157 159;stroke-dashoffset:158;}.start .lzjCaQyf_40{animation:lzjCaQyf_draw 3333ms linear 1418ms forwards;}.lzjCaQyf_41{stroke-dasharray:214 216;stroke-dashoffset:215;}.start .lzjCaQyf_41{animation:lzjCaQyf_draw 3333ms linear 1453ms forwards;}.lzjCaQyf_42{stroke-dasharray:157 159;stroke-dashoffset:158;}.start .lzjCaQyf_42{animation:lzjCaQyf_draw 3333ms linear 1489ms forwards;}.lzjCaQyf_43{stroke-dasharray:214 216;stroke-dashoffset:215;}.start .lzjCaQyf_43{animation:lzjCaQyf_draw 3333ms linear 1524ms forwards;}.lzjCaQyf_44{stroke-dasharray:71 73;stroke-dashoffset:72;}.start .lzjCaQyf_44{animation:lzjCaQyf_draw 3333ms linear 1560ms forwards;}.lzjCaQyf_45{stroke-dasharray:71 73;stroke-dashoffset:72;}.start .lzjCaQyf_45{animation:lzjCaQyf_draw 3333ms linear 1595ms forwards;}.lzjCaQyf_46{stroke-dasharray:71 73;stroke-dashoffset:72;}.start .lzjCaQyf_46{animation:lzjCaQyf_draw 3333ms linear 1631ms forwards;}.lzjCaQyf_47{stroke-dasharray:71 73;stroke-dashoffset:72;}.start .lzjCaQyf_47{animation:lzjCaQyf_draw 3333ms linear 1666ms forwards;}@keyframes lzjCaQyf_draw{100%{stroke-dashoffset:0;}}@keyframes lzjCaQyf_fade{0%{stroke-opacity:1;}95.65217391304348%{stroke-opacity:1;}100%{stroke-opacity:0;}}</style></svg>
