<?xml version="1.0" encoding="UTF-8" standalone="no"?>
<!-- Created with Inkscape (http://www.inkscape.org/) -->

<svg
   xmlns:osb="http://www.openswatchbook.org/uri/2009/osb"
   xmlns:dc="http://purl.org/dc/elements/1.1/"
   xmlns:cc="http://creativecommons.org/ns#"
   xmlns:rdf="http://www.w3.org/1999/02/22-rdf-syntax-ns#"
   xmlns:svg="http://www.w3.org/2000/svg"
   xmlns="http://www.w3.org/2000/svg"
   xmlns:sodipodi="http://sodipodi.sourceforge.net/DTD/sodipodi-0.dtd"
   xmlns:inkscape="http://www.inkscape.org/namespaces/inkscape"
   width="195.72455mm"
   height="39.99221mm"
   viewBox="0 0 693.51218 141.70468"
   id="svg2"
   version="1.1"
   inkscape:version="0.91 r13725"
   sodipodi:docname="introText.svg">
  <defs
     id="defs4">
    <linearGradient
       id="linearGradient4331"
       osb:paint="solid">
      <stop
         style="stop-color:#f91010;stop-opacity:1;"
         offset="0"
         id="stop4333" />
    </linearGradient>
  </defs>
  <sodipodi:namedview
     id="base"
     pagecolor="#ffffff"
     bordercolor="#666666"
     borderopacity="1.0"
     inkscape:pageopacity="0.0"
     inkscape:pageshadow="2"
     inkscape:zoom="1.63"
     inkscape:cx="475.03909"
     inkscape:cy="44.870414"
     inkscape:document-units="px"
     inkscape:current-layer="flowRoot4136"
     showgrid="false"
     fit-margin-top="0"
     fit-margin-left="0"
     fit-margin-right="0"
     fit-margin-bottom="0"
     inkscape:window-width="2560"
     inkscape:window-height="1396"
     inkscape:window-x="0"
     inkscape:window-y="0"
     inkscape:window-maximized="1" />
  <metadata
     id="metadata7">
    <rdf:RDF>
      <cc:Work
         rdf:about="">
        <dc:format>image/svg+xml</dc:format>
        <dc:type
           rdf:resource="http://purl.org/dc/dcmitype/StillImage" />
        <dc:title></dc:title>
      </cc:Work>
    </rdf:RDF>
  </metadata>
  <g
     inkscape:label="Layer 1"
     inkscape:groupmode="layer"
     id="layer1"
     transform="translate(-18.502265,-297.97507)">
    <g
       transform="translate(74.468085,79.787234)"
       style="font-style:normal;font-variant:normal;font-weight:normal;font-stretch:normal;font-size:70px;line-height:125%;font-family:Desdemona;-inkscape-font-specification:Desdemona;letter-spacing:0px;word-spacing:0px;fill:#000000;fill-opacity:1;stroke:none;stroke-width:1px;stroke-linecap:butt;stroke-linejoin:miter;stroke-opacity:1"
       id="flowRoot4136">
      <g
         id="introLetters">
        <path
           sodipodi:nodetypes="ccscsccccscsccscc"
           inkscape:connector-curvature="0"
           id="path4153"
           style="font-style:normal;font-variant:normal;font-weight:normal;font-stretch:normal;font-size:70px;font-family:Desdemona;-inkscape-font-specification:Desdemona;text-align:center;text-anchor:middle;fill:#f91010;fill-opacity:1;stroke:#000000;stroke-opacity:1"
           d="m -18.825195,218.84565 c 0,2.11914 -0.831706,3.91927 -2.495117,5.40039 -1.640625,1.45833 -3.543295,2.1875 -5.708008,2.1875 l -5.46875,0 0,38.82813 c 0,1.18489 0.05697,2.11914 0.170898,2.80273 0.205078,1.13932 0.581055,2.21028 1.12793,3.21289 l -9.296875,0 c 0.615234,-0.91146 1.013997,-1.94824 1.196289,-3.11035 0.113932,-0.68359 0.170898,-1.65202 0.170898,-2.90527 l 0,-39.03321 -6.220703,0 c -1.822917,0 -3.828125,0.61524 -6.015625,1.84571 l 0,-8.06641 26.181641,0 c 1.253255,0 2.495117,-0.14811 3.725586,-0.44434 0.113932,-0.0228 0.991211,-0.26206 2.631836,-0.71777 z" />
        <path
           sodipodi:nodetypes="cccsscccccsccccccsccc"
           inkscape:connector-curvature="0"
           id="path4155"
           style="font-style:normal;font-variant:normal;font-weight:normal;font-stretch:normal;font-size:70px;font-family:Desdemona;-inkscape-font-specification:Desdemona;text-align:center;text-anchor:middle;fill:#f91010;fill-opacity:1;stroke:#000000;stroke-opacity:1"
           d="m 14.397461,271.27729 -29.873047,0 c 0.615235,-0.91146 1.013998,-1.94824 1.196289,-3.11035 0.113933,-0.68359 0.170899,-1.65202 0.170899,-2.90527 l 0,-39.23829 c 0,-1.23047 -0.05697,-2.1875 -0.170899,-2.87109 -0.205078,-1.20768 -0.603841,-2.25586 -1.196289,-3.14453 l 27.001953,0 0,8.47656 c -1.116536,-0.70638 -2.0052081,-1.1735 -2.6660154,-1.40137 -0.8658855,-0.29622 -1.9824219,-0.44433 -3.3496094,-0.44433 l -12.9882813,0 0,2.73437 17.0898438,0 0,6.63086 -17.0898438,0 0,28.64258 15.859375,0 c 1.5039061,0 2.7913411,-0.22786 3.8623051,-0.68359 0.250651,-0.11393 0.968424,-0.5013 2.15332,-1.16211 z" />
        <path
           inkscape:connector-curvature="0"
           id="path4265"
           d="m 50.55957,227.32221 c -0.957031,-0.61523 -1.765951,-1.04818 -2.426758,-1.29883 -0.660807,-0.27343 -1.401366,-0.41015 -2.221679,-0.41015 -1.139323,0 -2.062175,0.48991 -2.768555,1.46972 -0.615234,0.86589 -0.922851,1.83431 -0.922851,2.90528 0,1.61784 0.330403,3.72559 0.99121,6.32324 0.660807,2.57487 1.321615,5.24088 1.982422,7.99805 0.660807,2.75716 0.991211,5.36621 0.991211,7.82715 0,5.81055 -1.925456,10.5957 -5.776367,14.35546 -3.828125,3.73698 -8.601888,5.60547 -14.321289,5.60547 -0.957031,0 -2.062175,-0.0684 -3.31543,-0.20508 -1.253255,-0.11393 -2.381184,-0.29622 -3.383789,-0.54687 l 0,-7.79297 c 1.48112,0.68359 2.734375,1.13932 3.759766,1.36719 1.025391,0.22787 2.233073,0.3418 3.623047,0.3418 3.714193,0 6.665039,-1.36719 8.852539,-4.10157 2.027995,-2.52929 3.041992,-5.67382 3.041992,-9.43359 0,-2.46094 -0.31901,-5.03581 -0.957031,-7.72461 -0.638021,-2.71159 -1.253255,-5.28646 -1.845703,-7.72461 -0.683594,-2.77995 -1.025391,-5.01302 -1.025391,-6.69922 0,-2.80273 0.945638,-5.18392 2.836914,-7.14355 2.050781,-2.11914 4.705404,-3.17871 7.963867,-3.17871 0.888672,0 1.686198,0.0342 2.392578,0.10254 0.729167,0.0684 1.572266,0.17089 2.529297,0.30761 z"
           style="font-style:normal;font-variant:normal;font-weight:normal;font-stretch:normal;font-size:70px;font-family:Desdemona;-inkscape-font-specification:Desdemona;text-align:center;text-anchor:middle;fill:#f91010;fill-opacity:1;stroke:#000000;stroke-opacity:1" />
        <path
           inkscape:connector-curvature="0"
           id="path4277"
           d="m 86.584961,218.84565 q 0,3.17871 -2.495117,5.40039 -2.460938,2.1875 -5.708008,2.1875 l -5.46875,0 0,38.82813 q 0,1.77734 0.170898,2.80273 0.307618,1.70898 1.12793,3.21289 l -9.296875,0 q 0.922852,-1.36719 1.196289,-3.11035 0.170899,-1.02539 0.170899,-2.90527 l 0,-39.03321 -6.220704,0 q -2.734375,0 -6.015625,1.84571 l 0,-8.06641 26.181641,0 q 1.879883,0 3.725586,-0.44434 0.170898,-0.0342 2.631836,-0.71777 z"
           style="font-style:normal;font-variant:normal;font-weight:normal;font-stretch:normal;font-size:70px;font-family:Desdemona;-inkscape-font-specification:Desdemona;text-align:center;text-anchor:middle;fill:#f91010;fill-opacity:1;stroke:#000000;stroke-opacity:1" />
        <path
           inkscape:connector-curvature="0"
           id="path4273"
           d="m 99.231445,271.27729 -9.296875,0 q 0.922852,-1.36719 1.196289,-3.11035 0.170899,-1.02539 0.170899,-2.90527 l 0,-39.23829 q 0,-1.8457 -0.170899,-2.87109 -0.307617,-1.81152 -1.196289,-3.14453 l 9.296875,0 q -0.786133,1.43555 -1.05957,2.93945 -0.239258,1.46973 -0.239258,3.07617 l 0,39.23829 q 0,1.77734 0.170899,2.80273 0.307617,1.70898 1.127929,3.21289 z"
           style="font-style:normal;font-variant:normal;font-weight:normal;font-stretch:normal;font-size:70px;font-family:Desdemona;-inkscape-font-specification:Desdemona;text-align:center;text-anchor:middle;fill:#f91010;fill-opacity:1;stroke:#000000;stroke-opacity:1" />
        <path
           inkscape:connector-curvature="0"
           id="path4269"
           d="m 137.78613,271.27729 -9.29687,0 q 0.92285,-1.36719 1.19629,-3.11035 0.1709,-1.02539 0.1709,-2.90527 l 0,-12.50977 -15.10743,-21.05469 0,33.56446 q 0,1.77734 0.1709,2.80273 0.30762,1.70898 1.12793,3.21289 l -9.29687,0 q 0.92285,-1.36719 1.19629,-3.11035 0.17089,-1.02539 0.17089,-2.90527 l 0,-39.23829 q 0,-1.8457 -0.17089,-2.87109 -0.30762,-1.81152 -1.19629,-3.14453 l 10.66406,0 q -0.3418,0.92285 -0.3418,1.91406 0,0.99121 0.27344,1.81153 0.27344,0.78613 0.75195,1.46972 2.11914,3.07617 4.44336,6.32324 0.71778,0.99121 4.30664,5.98145 1.50391,2.08496 3.00782,4.16992 l 0,-15.6543 q 0,-1.8457 -0.1709,-2.87109 -0.30762,-1.81152 -1.19629,-3.14453 l 9.29687,0 q -0.78613,1.43555 -1.05957,2.93945 -0.23926,1.46973 -0.23926,3.07617 l 0,39.23829 q 0,1.77734 0.1709,2.80273 0.30762,1.70898 1.12793,3.21289 z"
           style="font-style:normal;font-variant:normal;font-weight:normal;font-stretch:normal;font-size:70px;font-family:Desdemona;-inkscape-font-specification:Desdemona;text-align:center;text-anchor:middle;fill:#f91010;fill-opacity:1;stroke:#000000;stroke-opacity:1" />
        <path
           inkscape:connector-curvature="0"
           id="path4297"
           d="m 177.29785,272.0976 q -13.77441,-3.75976 -23.13965,-13.53515 -9.94629,-10.39063 -9.94629,-22.76368 0,-7.38281 4.51172,-11.68945 4.30664,-4.10156 11.2793,-4.10156 l 11.75781,0 0,9.29687 q -5.22949,-3.14453 -10.18554,-3.14453 -4.44336,0 -7.34864,2.66602 -3.17871,2.90527 -3.17871,7.79297 0,7.00683 5.94727,14.83398 5.57129,7.34863 12.09961,10.18555 l 0,-21.80664 q 0,-1.84571 -0.1709,-2.8711 -0.30762,-1.81152 -1.19629,-3.14453 l 9.22851,0 q -0.82031,1.50391 -1.09375,3.24707 -0.13671,0.92285 -0.13671,2.76856 l 0,25.15625 q 0,2.29004 0.78613,4.92187 0.23926,0.8545 0.78613,2.1875 z"
           style="font-style:normal;font-variant:normal;font-weight:normal;font-stretch:normal;font-size:70px;font-family:Desdemona;-inkscape-font-specification:Desdemona;text-align:center;text-anchor:middle;fill:#f91010;fill-opacity:1;stroke:#000000;stroke-opacity:1" />
        <path
           inkscape:connector-curvature="0"
           id="path4293"
           d="m 239.84668,220.00776 q -1.09375,1.36719 -1.98242,3.17871 -0.85449,1.77734 -1.09375,3.04199 l -7.99805,37.46094 q -0.1709,0.88867 -0.30762,1.81152 -0.10254,0.92285 -0.10254,2.0166 0,1.09375 0.1709,2.08497 0.20508,0.95703 0.58106,1.6748 l -10.66406,0 q 0.23925,-0.61523 0.34179,-1.36719 0.13672,-0.78613 0.13672,-1.64062 0,-1.16211 -0.20508,-2.39258 -0.1709,-1.23047 -0.41015,-2.1875 l -1.57227,-8.81836 -1.57226,8.81836 q -0.27344,1.02539 -0.44434,2.22168 -0.1709,1.19629 -0.1709,2.42676 0,1.70898 0.47852,2.93945 l -10.66407,0 q 0.37598,-0.71777 0.54688,-1.6748 0.20508,-0.99122 0.20508,-2.08497 0,-0.99121 -0.13672,-1.91406 -0.10254,-0.95703 -0.27344,-1.91406 l -7.51953,-37.46094 q -0.27344,-1.40136 -1.09375,-3.04199 -0.78613,-1.6748 -1.98242,-3.17871 l 11.07422,0 q -0.58106,0.99121 -0.8545,2.42676 -0.23925,1.40136 -0.23925,2.90527 0,0.61523 0.0684,1.29883 0.0684,0.68359 0.13671,1.16211 0.0684,0.44433 1.60645,8.78418 l 3.99902,22.66113 3.62305,-17.5 -4.58008,-21.73828 6.69922,0 q 0.13672,0.95703 0.23926,1.60644 0.71777,4.375 0.92285,6.25489 l 1.36719,-7.86133 6.5625,0 -4.78516,21.80664 3.34961,17.5 q 0.23926,-1.87988 1.70899,-9.02344 0.37597,-1.77734 2.83691,-13.70605 1.70898,-8.16895 1.8457,-9.0918 0.1709,-0.92285 0.1709,-2.15332 0,-1.46973 -0.27344,-2.87109 -0.23925,-1.40137 -0.82031,-2.46094 l 11.07422,0 z"
           style="font-style:normal;font-variant:normal;font-weight:normal;font-stretch:normal;font-size:70px;font-family:Desdemona;-inkscape-font-specification:Desdemona;text-align:center;text-anchor:middle;fill:#f91010;fill-opacity:1;stroke:#000000;stroke-opacity:1" />
        <path
           inkscape:connector-curvature="0"
           id="path4289"
           d="m 252.49316,271.27729 -9.29687,0 q 0.92285,-1.36719 1.19629,-3.11035 0.1709,-1.02539 0.1709,-2.90527 l 0,-39.23829 q 0,-1.8457 -0.1709,-2.87109 -0.30762,-1.81152 -1.19629,-3.14453 l 9.29687,0 q -0.78613,1.43555 -1.05957,2.93945 -0.23925,1.46973 -0.23925,3.07617 l 0,39.23829 q 0,1.77734 0.17089,2.80273 0.30762,1.70898 1.12793,3.21289 z"
           style="font-style:normal;font-variant:normal;font-weight:normal;font-stretch:normal;font-size:70px;font-family:Desdemona;-inkscape-font-specification:Desdemona;text-align:center;text-anchor:middle;fill:#f91010;fill-opacity:1;stroke:#000000;stroke-opacity:1" />
        <path
           inkscape:connector-curvature="0"
           id="path4285"
           d="m 289.47559,218.84565 q 0,3.17871 -2.49512,5.40039 -2.46094,2.1875 -5.70801,2.1875 l -5.46875,0 0,38.82813 q 0,1.77734 0.1709,2.80273 0.30762,1.70898 1.12793,3.21289 l -9.29688,0 q 0.92286,-1.36719 1.19629,-3.11035 0.1709,-1.02539 0.1709,-2.90527 l 0,-39.03321 -6.2207,0 q -2.73438,0 -6.01563,1.84571 l 0,-8.06641 26.18164,0 q 1.87989,0 3.72559,-0.44434 0.1709,-0.0342 2.63184,-0.71777 z"
           style="font-style:normal;font-variant:normal;font-weight:normal;font-stretch:normal;font-size:70px;font-family:Desdemona;-inkscape-font-specification:Desdemona;text-align:center;text-anchor:middle;fill:#f91010;fill-opacity:1;stroke:#000000;stroke-opacity:1" />
        <path
           inkscape:connector-curvature="0"
           id="path4281"
           d="m 324.13379,220.00776 q -0.85449,1.40137 -1.12793,2.87109 -0.23926,1.43555 -0.23926,3.14453 l 0,39.23829 q 0,1.77734 0.1709,2.80273 0.30762,1.70898 1.12793,3.21289 l -9.29688,0 q 0.92286,-1.36719 1.19629,-3.11035 0.1709,-1.02539 0.1709,-2.90527 l 0,-27.95899 q -0.85449,-0.92285 -1.81152,-1.40137 -0.92285,-0.51269 -1.94824,-0.51269 -1.29883,0 -4.40918,1.19629 -1.50391,0.58105 -2.7002,0.58105 -1.02539,0 -2.32422,-0.20508 -1.26465,-0.23925 -2.11914,-0.61523 l 0,28.91602 q 0,1.77734 0.1709,2.80273 0.30762,1.70898 1.12793,3.21289 l -9.29687,0 q 0.92285,-1.36719 1.19628,-3.11035 0.1709,-1.02539 0.1709,-2.90527 l 0,-39.23829 q 0,-1.8457 -0.1709,-2.87109 -0.30761,-1.81152 -1.19628,-3.14453 l 9.36523,0 q -0.85449,1.36719 -1.12793,2.83691 -0.23926,1.46973 -0.23926,3.17871 l 0,3.96485 q 0.85449,0.51269 1.53809,0.75195 0.71777,0.20508 1.74316,0.20508 1.57227,0 3.17871,-0.54688 3.82813,-1.29882 5.09278,-1.29882 2.32422,0 3.75976,1.09375 l 0,-4.16993 q 0,-1.8457 -0.1709,-2.87109 -0.30761,-1.81152 -1.19629,-3.14453 l 9.36524,0 z"
           style="font-style:normal;font-variant:normal;font-weight:normal;font-stretch:normal;font-size:70px;font-family:Desdemona;-inkscape-font-specification:Desdemona;text-align:center;text-anchor:middle;fill:#f91010;fill-opacity:1;stroke:#000000;stroke-opacity:1" />
        <path
           inkscape:connector-curvature="0"
           id="path4435"
           d="m 376.49707,220.00776 q -0.85449,1.40137 -1.12793,2.87109 -0.23926,1.43555 -0.23926,3.14453 l 0,39.23829 q 0,1.77734 0.1709,2.80273 0.30762,1.70898 1.12793,3.21289 l -9.29687,0 q 0.92285,-1.36719 1.19628,-3.11035 0.1709,-1.02539 0.1709,-2.90527 l 0,-27.95899 q -0.85449,-0.92285 -1.81152,-1.40137 -0.92285,-0.51269 -1.94824,-0.51269 -1.29883,0 -4.40918,1.19629 -1.50391,0.58105 -2.7002,0.58105 -1.02539,0 -2.32422,-0.20508 -1.26464,-0.23925 -2.11914,-0.61523 l 0,28.91602 q 0,1.77734 0.1709,2.80273 0.30762,1.70898 1.12793,3.21289 l -9.29687,0 q 0.92285,-1.36719 1.19629,-3.11035 0.17089,-1.02539 0.17089,-2.90527 l 0,-39.23829 q 0,-1.8457 -0.17089,-2.87109 -0.30762,-1.81152 -1.19629,-3.14453 l 9.36523,0 q -0.85449,1.36719 -1.12793,2.83691 -0.23926,1.46973 -0.23926,3.17871 l 0,3.96485 q 0.8545,0.51269 1.53809,0.75195 0.71777,0.20508 1.74316,0.20508 1.57227,0 3.17871,-0.54688 3.82813,-1.29882 5.09278,-1.29882 2.32422,0 3.75976,1.09375 l 0,-4.16993 q 0,-1.8457 -0.1709,-2.87109 -0.30761,-1.81152 -1.19628,-3.14453 l 9.36523,0 z"
           style="font-style:normal;font-variant:normal;font-weight:normal;font-stretch:normal;font-size:70px;font-family:Desdemona;-inkscape-font-specification:Desdemona;text-align:center;text-anchor:middle;fill:#f91010;fill-opacity:1;stroke:#000000;stroke-opacity:1" />
        <path
           inkscape:connector-curvature="0"
           id="path4431"
           d="m 413.75293,271.27729 -29.87305,0 q 0.92285,-1.36719 1.19629,-3.11035 0.1709,-1.02539 0.1709,-2.90527 l 0,-39.23829 q 0,-1.8457 -0.1709,-2.87109 -0.30762,-1.81152 -1.19629,-3.14453 l 27.00196,0 0,8.47656 q -1.67481,-1.05957 -2.66602,-1.40137 -1.29883,-0.44433 -3.34961,-0.44433 l -12.98828,0 0,2.73437 17.08984,0 0,6.63086 -17.08984,0 0,28.64258 15.85937,0 q 2.25586,0 3.86231,-0.68359 0.37598,-0.1709 2.15332,-1.16211 l 0,8.47656 z"
           style="font-style:normal;font-variant:normal;font-weight:normal;font-stretch:normal;font-size:70px;font-family:Desdemona;-inkscape-font-specification:Desdemona;text-align:center;text-anchor:middle;fill:#f91010;fill-opacity:1;stroke:#000000;stroke-opacity:1" />
        <path
           inkscape:connector-curvature="0"
           id="path4427"
           d="m 448.06934,271.27729 -9.29688,0 q 0.92285,-1.36719 1.19629,-3.11035 0.1709,-1.02539 0.1709,-2.90527 l 0,-9.57032 -14.90235,0 q 0,0.92285 -0.0342,2.93946 -0.0342,2.0166 -0.0342,3.04199 0,3.34961 0.27343,5.70801 0.27344,2.35839 1.09375,3.89648 l -9.57031,0 q 0.99121,-1.46973 1.43555,-3.00781 0.47851,-1.53809 0.47851,-3.00781 l 0,-7.72461 q 0,-8.88672 3.69141,-17.63672 3.72558,-8.78418 10.08301,-14.21875 6.80175,-5.81055 13.2959,-5.81055 0.51269,0 0.85449,0 0.37597,0 1.26465,0.13672 -0.78614,1.36719 -1.05957,2.80273 -0.23926,1.40137 -0.23926,3.00782 l 0,39.44336 q 0,1.77734 0.1709,2.80273 0.30761,1.70898 1.12793,3.21289 z"
           style="font-style:normal;font-variant:normal;font-weight:normal;font-stretch:normal;font-size:70px;font-family:Desdemona;-inkscape-font-specification:Desdemona;text-align:center;text-anchor:middle;fill:#f91010;fill-opacity:1;stroke:#000000;stroke-opacity:1" />
        <path
           inkscape:connector-curvature="0"
           id="path4419"
           d="m 487.5127,253.64057 q 0,8.33985 -3.96485,12.98828 -3.93066,4.64844 -10.39062,4.64844 l -17.63672,0 q 0.92285,-1.36719 1.19629,-3.11035 0.1709,-1.02539 0.1709,-2.90527 l 0,-39.58008 q 0,-1.81153 -0.1709,-2.8711 -0.30762,-1.8457 -1.19629,-3.28125 7.17773,0.6836 14.66308,5.63965 7.48536,4.95606 12.20215,12.27051 5.12696,7.96387 5.12696,16.20117 z"
           style="font-style:normal;font-variant:normal;font-weight:normal;font-stretch:normal;font-size:70px;font-family:Desdemona;-inkscape-font-specification:Desdemona;text-align:center;text-anchor:middle;fill:#f91010;fill-opacity:1;stroke:#000000;stroke-opacity:1" />
        <path
           inkscape:connector-curvature="0"
           id="path4411"
           d="m 520.46191,271.27729 -26.66015,0 q 0.92285,-1.36719 1.19629,-3.11035 0.1709,-1.02539 0.1709,-2.90527 l 0,-39.23829 q 0,-1.8457 -0.1709,-2.87109 -0.30762,-1.81152 -1.19629,-3.14453 l 9.84375,0 q -1.84571,3.28125 -1.84571,6.01562 l 0,38.62305 12.64649,0 q 2.73437,0 6.01562,-1.8457 l 0,8.47656 z"
           style="font-style:normal;font-variant:normal;font-weight:normal;font-stretch:normal;font-size:70px;font-family:Desdemona;-inkscape-font-specification:Desdemona;text-align:center;text-anchor:middle;fill:#f91010;fill-opacity:1;stroke:#000000;stroke-opacity:1" />
        <path
           inkscape:connector-curvature="0"
           id="path4407"
           d="m 555.12012,271.27729 -29.87305,0 q 0.92285,-1.36719 1.19629,-3.11035 0.1709,-1.02539 0.1709,-2.90527 l 0,-39.23829 q 0,-1.8457 -0.1709,-2.87109 -0.30762,-1.81152 -1.19629,-3.14453 l 27.00195,0 0,8.47656 q -1.6748,-1.05957 -2.66601,-1.40137 -1.29883,-0.44433 -3.34961,-0.44433 l -12.98828,0 0,2.73437 17.08984,0 0,6.63086 -17.08984,0 0,28.64258 15.85937,0 q 2.25586,0 3.86231,-0.68359 0.37597,-0.1709 2.15332,-1.16211 l 0,8.47656 z"
           style="font-style:normal;font-variant:normal;font-weight:normal;font-stretch:normal;font-size:70px;font-family:Desdemona;-inkscape-font-specification:Desdemona;text-align:center;text-anchor:middle;fill:#f91010;fill-opacity:1;stroke:#000000;stroke-opacity:1" />
        <path
           inkscape:connector-curvature="0"
           id="path4403"
           d="m 591.28223,227.32221 q -1.43555,-0.92285 -2.42676,-1.29883 -0.99121,-0.41015 -2.22168,-0.41015 -1.70899,0 -2.76856,1.46972 -0.92285,1.29883 -0.92285,2.90528 0,2.42676 0.99121,6.32324 0.99121,3.8623 1.98243,7.99805 0.99121,4.13574 0.99121,7.82715 0,8.71582 -5.77637,14.35546 -5.74219,5.60547 -14.32129,5.60547 -1.43555,0 -3.31543,-0.20508 -1.87988,-0.17089 -3.38379,-0.54687 l 0,-7.79297 q 2.22168,1.02539 3.75977,1.36719 1.53808,0.3418 3.62304,0.3418 5.57129,0 8.85254,-4.10157 3.042,-3.79394 3.042,-9.43359 0,-3.69141 -0.95704,-7.72461 -0.95703,-4.06738 -1.8457,-7.72461 -1.02539,-4.16992 -1.02539,-6.69922 0,-4.2041 2.83691,-7.14355 3.07618,-3.17871 7.96387,-3.17871 1.33301,0 2.39258,0.10254 1.09375,0.10253 2.5293,0.30761 l 0,7.65625 z"
           style="font-style:normal;font-variant:normal;font-weight:normal;font-stretch:normal;font-size:70px;font-family:Desdemona;-inkscape-font-specification:Desdemona;text-align:center;text-anchor:middle;fill:#f91010;fill-opacity:1;stroke:#000000;stroke-opacity:1" />
        <path
           inkscape:connector-curvature="0"
           id="path4399"
           d="m 628.46973,227.32221 q -1.43555,-0.92285 -2.42676,-1.29883 -0.99121,-0.41015 -2.22168,-0.41015 -1.70899,0 -2.76856,1.46972 -0.92285,1.29883 -0.92285,2.90528 0,2.42676 0.99121,6.32324 0.99121,3.8623 1.98243,7.99805 0.99121,4.13574 0.99121,7.82715 0,8.71582 -5.77637,14.35546 -5.74219,5.60547 -14.32129,5.60547 -1.43555,0 -3.31543,-0.20508 -1.87988,-0.17089 -3.38379,-0.54687 l 0,-7.79297 q 2.22168,1.02539 3.75977,1.36719 1.53808,0.3418 3.62304,0.3418 5.57129,0 8.85254,-4.10157 3.042,-3.79394 3.042,-9.43359 0,-3.69141 -0.95704,-7.72461 -0.95703,-4.06738 -1.8457,-7.72461 -1.02539,-4.16992 -1.02539,-6.69922 0,-4.2041 2.83691,-7.14355 3.07618,-3.17871 7.96387,-3.17871 1.33301,0 2.39258,0.10254 1.09375,0.10253 2.5293,0.30761 l 0,7.65625 z"
           style="font-style:normal;font-variant:normal;font-weight:normal;font-stretch:normal;font-size:70px;font-family:Desdemona;-inkscape-font-specification:Desdemona;text-align:center;text-anchor:middle;fill:#f91010;fill-opacity:1;stroke:#000000;stroke-opacity:1" />
        <path
           inkscape:connector-curvature="0"
           id="path4329"
           d="m -24.293945,359.18745 q -8.100586,-1.94825 -14.936524,-6.49414 -7.416992,-4.95606 -11.586914,-11.75782 -4.648437,-7.55371 -4.648437,-16.40625 0,-7.55371 4.477539,-12.47558 4.511719,-4.95606 11.313476,-4.95606 2.016602,0 3.793946,0.10254 5.332031,0.30762 6.049804,0.30762 l 0,8.95508 q -2.358398,-1.57227 -4.34082,-2.1875 -1.948242,-0.61524 -4.477539,-0.61524 -4.40918,0 -7.143555,3.11035 -2.700195,3.07618 -2.700195,8.16895 0,7.21191 4.511719,13.70605 3.896484,5.60547 9.912109,9.2627 5.50293,3.34961 9.775391,3.34961 l 0,7.92969 z"
           style="font-style:normal;font-variant:normal;font-weight:normal;font-stretch:normal;font-size:70px;font-family:Desdemona;-inkscape-font-specification:Desdemona;text-align:center;text-anchor:middle;fill:#f91010;fill-opacity:1;stroke:#000000;stroke-opacity:1" />
        <path
           inkscape:connector-curvature="0"
           id="path4325"
           d="m 12.756836,307.50776 q -0.854492,1.40137 -1.12793,2.87109 -0.239258,1.43555 -0.239258,3.14453 l 0,39.23829 q 0,1.77734 0.170899,2.80273 0.307617,1.70898 1.12793,3.21289 l -9.2968754,0 q 0.9228515,-1.36719 1.196289,-3.11035 0.1708985,-1.02539 0.1708985,-2.90527 l 0,-27.95899 q -0.8544922,-0.92285 -1.8115235,-1.40137 -0.9228515,-0.51269 -1.94824216,-0.51269 -1.29882813,0 -4.40917974,1.19629 -1.5039062,0.58105 -2.7001953,0.58105 -1.0253906,0 -2.3242187,-0.20508 -1.2646485,-0.23925 -2.1191407,-0.61523 l 0,28.91602 q 0,1.77734 0.170898,2.80273 0.307618,1.70898 1.1279302,3.21289 l -9.2968752,0 q 0.922852,-1.36719 1.196289,-3.11035 0.170899,-1.02539 0.170899,-2.90527 l 0,-39.23829 q 0,-1.8457 -0.170899,-2.87109 -0.307617,-1.81152 -1.196289,-3.14453 l 9.3652346,0 q -0.8544926,1.36719 -1.1279296,2.83691 -0.239258,1.46973 -0.239258,3.17871 l 0,3.96485 q 0.8544922,0.51269 1.538086,0.75195 0.7177734,0.20508 1.7431641,0.20508 1.5722656,0 3.1787109,-0.54688 3.828125,-1.29882 5.09277344,-1.29882 2.32421876,0 3.75976566,1.09375 l 0,-4.16993 q 0,-1.8457 -0.1708985,-2.87109 -0.3076172,-1.81152 -1.196289,-3.14453 l 9.3652344,0 z"
           style="font-style:normal;font-variant:normal;font-weight:normal;font-stretch:normal;font-size:70px;font-family:Desdemona;-inkscape-font-specification:Desdemona;text-align:center;text-anchor:middle;fill:#f91010;fill-opacity:1;stroke:#000000;stroke-opacity:1" />
        <path
           inkscape:connector-curvature="0"
           id="path4321"
           d="m 51.584961,358.77729 -10.664063,0 q 0.375977,-0.71777 0.546875,-1.53809 0.205079,-0.82031 0.205079,-1.6748 0,-0.92285 -0.205079,-1.87988 -0.205078,-0.95703 -0.478515,-1.60645 -1.333008,-3.31543 -2.666016,-6.76758 -0.307617,-0.82031 -2.460937,-6.63086 -1.572266,-4.27246 -1.640625,-4.44336 l -6.083985,8.06641 0,10.45899 q 0,1.77734 0.170899,2.80273 0.307617,1.70898 1.127929,3.21289 l -9.296875,0 q 0.922852,-1.36719 1.196289,-3.11035 0.170899,-1.02539 0.170899,-2.90527 l 0,-39.23829 q 0,-1.8457 -0.170899,-2.87109 -0.307617,-1.81152 -1.196289,-3.14453 l 22.285157,0 q 2.802734,0 4.34082,1.09375 1.743164,1.23047 1.743164,3.69141 0,1.53808 -0.717773,3.14453 -0.581055,1.29882 -1.948243,3.21289 -1.196289,1.74316 -3.657226,5.09277 -1.333008,1.81152 -2.973633,3.99902 0.649414,1.91407 1.708984,5.02442 2.324219,6.76758 3.110352,8.98926 1.606445,4.58007 3.383789,9.43359 0.751953,2.0166 1.948242,4.13574 0.649414,1.12793 2.22168,3.45215 z"
           style="font-style:normal;font-variant:normal;font-weight:normal;font-stretch:normal;font-size:70px;font-family:Desdemona;-inkscape-font-specification:Desdemona;text-align:center;text-anchor:middle;fill:#f91010;fill-opacity:1;stroke:#000000;stroke-opacity:1" />
        <path
           inkscape:connector-curvature="0"
           id="path4313"
           d="m 96.223633,332.93745 q 0,11.89453 -5.776367,18.86718 -5.776368,6.97266 -15.620118,6.97266 -9.331054,0 -14.902343,-6.7334 -5.53711,-6.76758 -5.53711,-18.08105 0,-12.9541 5.46875,-19.72168 5.50293,-6.80176 15.585938,-6.80176 9.77539,0 15.27832,6.66504 5.50293,6.66504 5.50293,18.83301 z"
           style="font-style:normal;font-variant:normal;font-weight:normal;font-stretch:normal;font-size:70px;font-family:Desdemona;-inkscape-font-specification:Desdemona;text-align:center;text-anchor:middle;fill:#f91010;fill-opacity:1;stroke:#000000;stroke-opacity:1" />
        <path
           inkscape:connector-curvature="0"
           id="path4305"
           d="m 144.75879,358.77729 -10.66406,0 q 0.82031,-1.46973 1.16211,-3.00781 0.34179,-1.57227 0.34179,-3.00781 l -2.93945,-38.14454 -11.07422,9.16016 -10.5957,-8.95508 -2.93946,37.93946 q 0,1.53808 0.30762,3.00781 0.3418,1.46972 1.19629,3.00781 l -10.664062,0 q 1.196292,-1.74316 1.845702,-3.28125 0.6836,-1.53809 0.6836,-2.80273 0.58105,-6.22071 1.29882,-14.62891 0.71778,-8.4082 1.26465,-15.85938 0.58106,-7.48535 0.58106,-8.68164 0,-1.8457 -0.1709,-2.87109 -0.30762,-1.81152 -1.19629,-3.14453 l 11.41601,0 q 0.20508,0.92285 0.64942,1.70898 0.44433,0.75196 1.05957,1.36719 l 5.26367,4.99024 5.67383,-4.92188 q 1.29883,-1.09375 1.98242,-3.14453 l 11.48438,0 q -0.92286,1.36719 -1.16211,2.76855 -0.20508,1.36719 -0.20508,3.24707 0,1.64063 0.47851,8.75 0.30762,4.75098 1.16211,15.6543 0.71778,9.43359 1.23047,14.76563 0,1.19629 0.6836,2.76855 0.68359,1.57227 1.8457,3.31543 z"
           style="font-style:normal;font-variant:normal;font-weight:normal;font-stretch:normal;font-size:70px;font-family:Desdemona;-inkscape-font-specification:Desdemona;text-align:center;text-anchor:middle;fill:#f91010;fill-opacity:1;stroke:#000000;stroke-opacity:1" />
        <path
           inkscape:connector-curvature="0"
           id="path4301"
           d="m 179.0752,358.77729 -29.87305,0 q 0.92285,-1.36719 1.19629,-3.11035 0.1709,-1.02539 0.1709,-2.90527 l 0,-39.23829 q 0,-1.8457 -0.1709,-2.87109 -0.30762,-1.81152 -1.19629,-3.14453 l 27.00195,0 0,8.47656 q -1.6748,-1.05957 -2.66601,-1.40137 -1.29883,-0.44433 -3.34961,-0.44433 l -12.98828,0 0,2.73437 17.08984,0 0,6.63086 -17.08984,0 0,28.64258 15.85937,0 q 2.25586,0 3.8623,-0.68359 0.37598,-0.1709 2.15333,-1.16211 l 0,8.47656 z"
           style="font-style:normal;font-variant:normal;font-weight:normal;font-stretch:normal;font-size:70px;font-family:Desdemona;-inkscape-font-specification:Desdemona;text-align:center;text-anchor:middle;fill:#f91010;fill-opacity:1;stroke:#000000;stroke-opacity:1" />
        <path
           inkscape:connector-curvature="0"
           id="path4355"
           d="m 227.06348,358.77729 -9.29688,0 q 0.92285,-1.36719 1.19629,-3.11035 0.1709,-1.02539 0.1709,-2.90527 l 0,-9.57032 -14.90234,0 q 0,0.92285 -0.0342,2.93946 -0.0342,2.0166 -0.0342,3.04199 0,3.34961 0.27343,5.70801 0.27344,2.35839 1.09375,3.89648 l -9.57031,0 q 0.99121,-1.46973 1.43555,-3.00781 0.47851,-1.53809 0.47851,-3.00781 l 0,-7.72461 q 0,-8.88672 3.69141,-17.63672 3.72559,-8.78418 10.08301,-14.21875 6.80176,-5.81055 13.2959,-5.81055 0.51269,0 0.85449,0 0.37597,0 1.26465,0.13672 -0.78614,1.36719 -1.05957,2.80273 -0.23926,1.40137 -0.23926,3.00782 l 0,39.44336 q 0,1.77734 0.1709,2.80273 0.30761,1.70898 1.12793,3.21289 z"
           style="font-style:normal;font-variant:normal;font-weight:normal;font-stretch:normal;font-size:70px;font-family:Desdemona;-inkscape-font-specification:Desdemona;text-align:center;text-anchor:middle;fill:#f91010;fill-opacity:1;stroke:#000000;stroke-opacity:1" />
        <path
           inkscape:connector-curvature="0"
           id="path4347"
           d="m 265.5498,358.77729 -9.29687,0 q 0.92285,-1.36719 1.19629,-3.11035 0.1709,-1.02539 0.1709,-2.90527 l 0,-12.50977 -15.10742,-21.05469 0,33.56446 q 0,1.77734 0.17089,2.80273 0.30762,1.70898 1.12793,3.21289 l -9.29687,0 q 0.92285,-1.36719 1.19629,-3.11035 0.1709,-1.02539 0.1709,-2.90527 l 0,-39.23829 q 0,-1.8457 -0.1709,-2.87109 -0.30762,-1.81152 -1.19629,-3.14453 l 10.66406,0 q -0.3418,0.92285 -0.3418,1.91406 0,0.99121 0.27344,1.81153 0.27344,0.78613 0.75195,1.46972 2.11915,3.07617 4.44336,6.32324 0.71778,0.99121 4.30664,5.98145 1.50391,2.08496 3.00782,4.16992 l 0,-15.6543 q 0,-1.8457 -0.1709,-2.87109 -0.30762,-1.81152 -1.19629,-3.14453 l 9.29687,0 q -0.78613,1.43555 -1.05957,2.93945 -0.23925,1.46973 -0.23925,3.07617 l 0,39.23829 q 0,1.77734 0.17089,2.80273 0.30762,1.70898 1.12793,3.21289 z"
           style="font-style:normal;font-variant:normal;font-weight:normal;font-stretch:normal;font-size:70px;font-family:Desdemona;-inkscape-font-specification:Desdemona;text-align:center;text-anchor:middle;fill:#f91010;fill-opacity:1;stroke:#000000;stroke-opacity:1" />
        <path
           inkscape:connector-curvature="0"
           id="path4343"
           d="m 305.06152,341.14057 q 0,8.33985 -3.96484,12.98828 -3.93066,4.64844 -10.39063,4.64844 l -17.63671,0 q 0.92285,-1.36719 1.19628,-3.11035 0.1709,-1.02539 0.1709,-2.90527 l 0,-39.58008 q 0,-1.81153 -0.1709,-2.8711 -0.30761,-1.8457 -1.19628,-3.28125 7.17773,0.6836 14.66308,5.63965 7.48535,4.95606 12.20215,12.27051 5.12695,7.96387 5.12695,16.20117 z"
           style="font-style:normal;font-variant:normal;font-weight:normal;font-stretch:normal;font-size:70px;font-family:Desdemona;-inkscape-font-specification:Desdemona;text-align:center;text-anchor:middle;fill:#f91010;fill-opacity:1;stroke:#000000;stroke-opacity:1" />
        <path
           inkscape:connector-curvature="0"
           id="path4395"
           d="m 354.41699,312.29292 q 0,3.28125 -2.25586,6.5625 l -17.29492,25.77148 0,-11.2793 q 0.75195,-1.09375 1.50391,-2.1875 1.81152,-2.59765 3.82812,-5.57129 2.93946,-4.30664 4.92188,-7.28027 0.61523,-0.92285 0.88867,-1.60644 0.41016,-0.95704 0.41016,-1.81153 0,-0.82031 -0.54688,-1.05957 -0.5127,-0.23926 -2.05078,-0.23926 l -10.80078,0 0,39.16993 q 0,1.77734 0.1709,2.80273 0.30761,1.70898 1.12793,3.21289 l -9.29688,0 q 0.92285,-1.36719 1.19629,-3.11035 0.1709,-1.02539 0.1709,-2.90527 l 0,-39.23829 q 0,-1.8457 -0.1709,-2.87109 -0.30762,-1.81152 -1.19629,-3.14453 l 23.31055,0 q 2.80273,0 4.34082,1.09375 1.74316,1.23047 1.74316,3.69141 z"
           style="font-style:normal;font-variant:normal;font-weight:normal;font-stretch:normal;font-size:70px;font-family:Desdemona;-inkscape-font-specification:Desdemona;text-align:center;text-anchor:middle;fill:#f91010;fill-opacity:1;stroke:#000000;stroke-opacity:1" />
        <path
           inkscape:connector-curvature="0"
           id="path4391"
           d="m 390.37402,359.39252 q -8.03222,-1.77734 -15.85937,-8.61328 -7.17774,-6.25488 -11.79199,-14.56054 -4.61426,-8.30567 -4.61426,-14.90235 0,-2.22168 0.27344,-4.10156 0.27343,-1.91406 0.78613,-3.07617 0.51269,-1.19629 0.71777,-2.25586 0.23926,-1.05957 0.23926,-2.05078 0,-0.75196 -0.0684,-1.16211 -0.0342,-0.41016 -0.23926,-1.16211 l 10.86914,0 q -2.73437,3.00781 -3.96484,5.36621 -1.64063,3.11035 -1.64063,6.3916 0,5.94727 2.80274,12.06543 2.49512,5.43457 6.66504,10.01465 3.93066,4.30664 7.75879,6.2207 l 0,-34.04297 q 0,-1.8457 -0.1709,-2.87109 -0.30762,-1.81152 -1.19629,-3.14453 l 9.29687,0 q -0.78613,1.43555 -1.05957,2.93945 -0.23925,1.46973 -0.23925,3.07617 l 0,39.64844 q 0,1.70899 0.23925,3.17871 0.27344,1.46973 1.19629,3.04199 z"
           style="font-style:normal;font-variant:normal;font-weight:normal;font-stretch:normal;font-size:70px;font-family:Desdemona;-inkscape-font-specification:Desdemona;text-align:center;text-anchor:middle;fill:#f91010;fill-opacity:1;stroke:#000000;stroke-opacity:1" />
        <path
           inkscape:connector-curvature="0"
           id="path4387"
           d="m 427.15137,312.29292 q 0,3.28125 -2.25586,6.5625 l -17.29492,25.77148 0,-11.2793 q 0.75195,-1.09375 1.5039,-2.1875 1.81153,-2.59765 3.82813,-5.57129 2.93945,-4.30664 4.92187,-7.28027 0.61524,-0.92285 0.88867,-1.60644 0.41016,-0.95704 0.41016,-1.81153 0,-0.82031 -0.54687,-1.05957 -0.5127,-0.23926 -2.05079,-0.23926 l -10.80078,0 0,39.16993 q 0,1.77734 0.1709,2.80273 0.30762,1.70898 1.12793,3.21289 l -9.29687,0 q 0.92285,-1.36719 1.19628,-3.11035 0.1709,-1.02539 0.1709,-2.90527 l 0,-39.23829 q 0,-1.8457 -0.1709,-2.87109 -0.30761,-1.81152 -1.19628,-3.14453 l 23.31054,0 q 2.80274,0 4.34082,1.09375 1.74317,1.23047 1.74317,3.69141 z"
           style="font-style:normal;font-variant:normal;font-weight:normal;font-stretch:normal;font-size:70px;font-family:Desdemona;-inkscape-font-specification:Desdemona;text-align:center;text-anchor:middle;fill:#f91010;fill-opacity:1;stroke:#000000;stroke-opacity:1" />
        <path
           inkscape:connector-curvature="0"
           id="path4383"
           d="m 461.33105,312.29292 q 0,3.28125 -2.25585,6.5625 l -17.29493,25.77148 0,-11.2793 q 0.75196,-1.09375 1.50391,-2.1875 1.81152,-2.59765 3.82812,-5.57129 2.93946,-4.30664 4.92188,-7.28027 0.61523,-0.92285 0.88867,-1.60644 0.41016,-0.95704 0.41016,-1.81153 0,-0.82031 -0.54688,-1.05957 -0.51269,-0.23926 -2.05078,-0.23926 l -10.80078,0 0,39.16993 q 0,1.77734 0.1709,2.80273 0.30762,1.70898 1.12793,3.21289 l -9.29688,0 q 0.92285,-1.36719 1.19629,-3.11035 0.1709,-1.02539 0.1709,-2.90527 l 0,-39.23829 q 0,-1.8457 -0.1709,-2.87109 -0.30761,-1.81152 -1.19629,-3.14453 l 23.31055,0 q 2.80273,0 4.34082,1.09375 1.74316,1.23047 1.74316,3.69141 z"
           style="font-style:normal;font-variant:normal;font-weight:normal;font-stretch:normal;font-size:70px;font-family:Desdemona;-inkscape-font-specification:Desdemona;text-align:center;text-anchor:middle;fill:#f91010;fill-opacity:1;stroke:#000000;stroke-opacity:1" />
        <path
           inkscape:connector-curvature="0"
           id="path4379"
           d="m 495.98926,358.77729 -29.87305,0 q 0.92285,-1.36719 1.19629,-3.11035 0.1709,-1.02539 0.1709,-2.90527 l 0,-39.23829 q 0,-1.8457 -0.1709,-2.87109 -0.30762,-1.81152 -1.19629,-3.14453 l 27.00195,0 0,8.47656 q -1.6748,-1.05957 -2.66601,-1.40137 -1.29883,-0.44433 -3.34961,-0.44433 l -12.98828,0 0,2.73437 17.08984,0 0,6.63086 -17.08984,0 0,28.64258 15.85937,0 q 2.25586,0 3.86231,-0.68359 0.37597,-0.1709 2.15332,-1.16211 l 0,8.47656 z"
           style="font-style:normal;font-variant:normal;font-weight:normal;font-stretch:normal;font-size:70px;font-family:Desdemona;-inkscape-font-specification:Desdemona;text-align:center;text-anchor:middle;fill:#f91010;fill-opacity:1;stroke:#000000;stroke-opacity:1" />
        <path
           inkscape:connector-curvature="0"
           id="path4375"
           d="m 530.98926,306.34565 q 0,3.17871 -2.49512,5.40039 -2.46094,2.1875 -5.70801,2.1875 l -5.46875,0 0,38.82813 q 0,1.77734 0.1709,2.80273 0.30762,1.70898 1.12793,3.21289 l -9.29687,0 q 0.92285,-1.36719 1.19628,-3.11035 0.1709,-1.02539 0.1709,-2.90527 l 0,-39.03321 -6.2207,0 q -2.73437,0 -6.01562,1.84571 l 0,-8.06641 26.18164,0 q 1.87988,0 3.72558,-0.44434 0.1709,-0.0342 2.63184,-0.71777 z"
           style="font-style:normal;font-variant:normal;font-weight:normal;font-stretch:normal;font-size:70px;font-family:Desdemona;-inkscape-font-specification:Desdemona;text-align:center;text-anchor:middle;fill:#f91010;fill-opacity:1;stroke:#000000;stroke-opacity:1" />
        <path
           inkscape:connector-curvature="0"
           id="path4371"
           d="m 564.21191,358.77729 -29.87304,0 q 0.92285,-1.36719 1.19629,-3.11035 0.17089,-1.02539 0.17089,-2.90527 l 0,-39.23829 q 0,-1.8457 -0.17089,-2.87109 -0.30762,-1.81152 -1.19629,-3.14453 l 27.00195,0 0,8.47656 q -1.6748,-1.05957 -2.66602,-1.40137 -1.29882,-0.44433 -3.3496,-0.44433 l -12.98829,0 0,2.73437 17.08985,0 0,6.63086 -17.08985,0 0,28.64258 15.85938,0 q 2.25586,0 3.8623,-0.68359 0.37598,-0.1709 2.15332,-1.16211 l 0,8.47656 z"
           style="font-style:normal;font-variant:normal;font-weight:normal;font-stretch:normal;font-size:70px;font-family:Desdemona;-inkscape-font-specification:Desdemona;text-align:center;text-anchor:middle;fill:#f91010;fill-opacity:1;stroke:#000000;stroke-opacity:1" />
        <path
           inkscape:connector-curvature="0"
           id="path4367"
           d="m 599.62207,358.77729 -29.87305,0 q 0.92285,-1.36719 1.19629,-3.11035 0.1709,-1.02539 0.1709,-2.90527 l 0,-39.23829 q 0,-1.8457 -0.1709,-2.87109 -0.30761,-1.81152 -1.19629,-3.14453 l 27.00196,0 0,8.47656 q -1.67481,-1.05957 -2.66602,-1.40137 -1.29883,-0.44433 -3.34961,-0.44433 l -12.98828,0 0,2.73437 17.08984,0 0,6.63086 -17.08984,0 0,28.64258 15.85938,0 q 2.25585,0 3.8623,-0.68359 0.37598,-0.1709 2.15332,-1.16211 l 0,8.47656 z"
           style="font-style:normal;font-variant:normal;font-weight:normal;font-stretch:normal;font-size:70px;font-family:Desdemona;-inkscape-font-specification:Desdemona;text-align:center;text-anchor:middle;fill:#f91010;fill-opacity:1;stroke:#000000;stroke-opacity:1" />
        <path
           inkscape:connector-curvature="0"
           id="path4363"
           d="m 636.60449,358.77729 -10.66406,0 q 0.37598,-0.71777 0.54687,-1.53809 0.20508,-0.82031 0.20508,-1.6748 0,-0.92285 -0.20508,-1.87988 -0.20507,-0.95703 -0.47851,-1.60645 -1.33301,-3.31543 -2.66602,-6.76758 -0.30761,-0.82031 -2.46093,-6.63086 -1.57227,-4.27246 -1.64063,-4.44336 l -6.08398,8.06641 0,10.45899 q 0,1.77734 0.17089,2.80273 0.30762,1.70898 1.12793,3.21289 l -9.29687,0 q 0.92285,-1.36719 1.19629,-3.11035 0.1709,-1.02539 0.1709,-2.90527 l 0,-39.23829 q 0,-1.8457 -0.1709,-2.87109 -0.30762,-1.81152 -1.19629,-3.14453 l 22.28516,0 q 2.80273,0 4.34082,1.09375 1.74316,1.23047 1.74316,3.69141 0,1.53808 -0.71777,3.14453 -0.58106,1.29882 -1.94825,3.21289 -1.19628,1.74316 -3.65722,5.09277 -1.33301,1.81152 -2.97363,3.99902 0.64941,1.91407 1.70898,5.02442 2.32422,6.76758 3.11035,8.98926 1.60645,4.58007 3.38379,9.43359 0.75195,2.0166 1.94824,4.13574 0.64942,1.12793 2.22168,3.45215 z"
           style="font-style:normal;font-variant:normal;font-weight:normal;font-stretch:normal;font-size:70px;font-family:Desdemona;-inkscape-font-specification:Desdemona;text-align:center;text-anchor:middle;fill:#f91010;fill-opacity:1;stroke:#000000;stroke-opacity:1" />
      </g>
      <g
         id="introSpaces"
         inkscape:label="introSpaces">
        <path
           inkscape:connector-curvature="0"
           id="path4423"
           d="m 440.95996,250.15424 -15.6543,0 q 0.58106,-3.65722 2.49512,-8.13476 2.22168,-5.26367 5.33203,-9.22852 3.69141,-4.71679 7.82715,-6.49414 l 0,23.85742 z"
           style="font-style:normal;font-variant:normal;font-weight:normal;font-stretch:normal;font-size:70px;font-family:Desdemona;-inkscape-font-specification:Desdemona;text-align:center;text-anchor:middle;fill:#ffffff;fill-opacity:1;stroke:#000000;stroke-opacity:1" />
        <path
           inkscape:connector-curvature="0"
           id="path4415"
           d="m 481.56543,253.70897 q 0,5.81055 -2.76856,8.88672 -2.52929,2.80273 -6.80175,2.80273 l -9.29688,0 0,-36.70898 q 7.00684,2.05078 12.78321,9.29687 6.08398,7.65625 6.08398,15.72266 z"
           style="font-style:normal;font-variant:normal;font-weight:normal;font-stretch:normal;font-size:70px;font-family:Desdemona;-inkscape-font-specification:Desdemona;text-align:center;text-anchor:middle;fill:#ffffff;fill-opacity:1;stroke:#000000;stroke-opacity:1" />
        <path
           inkscape:connector-curvature="0"
           id="path4317"
           d="m 39.963867,314.89057 q 0,0.95703 -0.410156,2.0166 -0.410156,1.05957 -1.025391,1.87989 -2.563476,3.48632 -4.614258,6.15234 -2.290039,2.93945 -4.545898,5.87891 -1.025391,1.333 -2.050781,2.66601 l 0,-20.71289 9.228515,0 q 1.948243,0 2.666016,0.47852 0.751953,0.44433 0.751953,1.64062 z"
           style="font-style:normal;font-variant:normal;font-weight:normal;font-stretch:normal;font-size:70px;font-family:Desdemona;-inkscape-font-specification:Desdemona;text-align:center;text-anchor:middle;fill:#ffffff;fill-opacity:1;stroke:#000000;stroke-opacity:1" />
        <path
           inkscape:connector-curvature="0"
           id="path4309"
           d="m 90.481445,332.39057 q 0,8.81836 -3.862304,14.59473 -4.238282,6.32324 -11.586914,6.32324 -6.972657,0 -11.074219,-5.94727 -3.828125,-5.5371 -3.828125,-13.80859 0,-8.98926 3.657226,-14.66308 4.033203,-6.25489 11.245118,-6.25489 7.143554,0 11.381835,5.63965 4.067383,5.43457 4.067383,14.11621 z"
           style="font-style:normal;font-variant:normal;font-weight:normal;font-stretch:normal;font-size:70px;font-family:Desdemona;-inkscape-font-specification:Desdemona;text-align:center;text-anchor:middle;fill:#ffffff;fill-opacity:1;stroke:#000000;stroke-opacity:1" />
        <path
           inkscape:connector-curvature="0"
           id="path4351"
           d="m 219.9541,337.65424 -15.6543,0 q 0.58106,-3.65722 2.49512,-8.13476 2.22168,-5.26367 5.33203,-9.22852 3.69141,-4.71679 7.82715,-6.49414 l 0,23.85742 z"
           style="font-style:normal;font-variant:normal;font-weight:normal;font-stretch:normal;font-size:70px;font-family:Desdemona;-inkscape-font-specification:Desdemona;text-align:center;text-anchor:middle;fill:#ffffff;fill-opacity:1;stroke:#000000;stroke-opacity:1" />
        <path
           inkscape:connector-curvature="0"
           id="path4339"
           d="m 299.11426,341.20897 q 0,5.81055 -2.76856,8.88672 -2.52929,2.80273 -6.80175,2.80273 l -9.29688,0 0,-36.70898 q 7.00684,2.05078 12.7832,9.29687 6.08399,7.65625 6.08399,15.72266 z"
           style="font-style:normal;font-variant:normal;font-weight:normal;font-stretch:normal;font-size:70px;font-family:Desdemona;-inkscape-font-specification:Desdemona;text-align:center;text-anchor:middle;fill:#ffffff;fill-opacity:1;stroke:#000000;stroke-opacity:1" />
        <path
           inkscape:connector-curvature="0"
           id="path4359"
           d="m 624.9834,314.89057 q 0,0.95703 -0.41016,2.0166 -0.41015,1.05957 -1.02539,1.87989 -2.56348,3.48632 -4.61426,6.15234 -2.29004,2.93945 -4.54589,5.87891 -1.0254,1.333 -2.05079,2.66601 l 0,-20.71289 9.22852,0 q 1.94824,0 2.66602,0.47852 0.75195,0.44433 0.75195,1.64062 z"
           style="font-style:normal;font-variant:normal;font-weight:normal;font-stretch:normal;font-size:70px;font-family:Desdemona;-inkscape-font-specification:Desdemona;text-align:center;text-anchor:middle;fill:#ffffff;fill-opacity:1;stroke:#000000;stroke-opacity:1" />
      </g>
    </g>
  </g>
</svg>
